<?xml version="1.0" encoding="UTF-8" standalone="no"?>
<svg
   width="490.60892"
   zoomAndPan="magnify"
   viewBox="0 0 367.95669 109.15712"
   height="145.54283"
   preserveAspectRatio="xMidYMid"
   version="1.0"
   id="svg139"
   sodipodi:docname="6.svg"
   inkscape:version="1.4.2 (ebf0e940, 2025-05-08)"
   xmlns:inkscape="http://www.inkscape.org/namespaces/inkscape"
   xmlns:sodipodi="http://sodipodi.sourceforge.net/DTD/sodipodi-0.dtd"
   xmlns="http://www.w3.org/2000/svg"
   xmlns:svg="http://www.w3.org/2000/svg">
  <sodipodi:namedview
     id="namedview139"
     pagecolor="#ffffff"
     bordercolor="#000000"
     borderopacity="0.25"
     inkscape:showpageshadow="2"
     inkscape:pageopacity="0.0"
     inkscape:pagecheckerboard="0"
     inkscape:deskcolor="#d1d1d1"
     inkscape:zoom="1.604"
     inkscape:cx="245.32419"
     inkscape:cy="241.89526"
     inkscape:window-width="1568"
     inkscape:window-height="951"
     inkscape:window-x="0"
     inkscape:window-y="25"
     inkscape:window-maximized="0"
     inkscape:current-layer="svg139" />
  <defs
     id="defs20">
    <g
       id="g1" />
    <clipPath
       id="6ac5db4695">
      <path
         d="m 133,49 h 240 v 82.51953 H 133 Z m 0,0"
         clip-rule="nonzero"
         id="path1" />
    </clipPath>
    <clipPath
       id="a827d12e37">
      <rect
         x="0"
         width="240"
         y="0"
         height="83"
         id="rect1" />
    </clipPath>
    <clipPath
       id="cd9e770057">
      <path
         d="m 314.59375,56.558594 h 21.19922 v 21.203125 h -21.19922 z m 0,0"
         clip-rule="nonzero"
         id="path2" />
    </clipPath>
    <clipPath
       id="f4a187a977">
      <path
         d="m 325.19531,56.558594 c -5.85547,0 -10.60156,4.746094 -10.60156,10.601562 0,5.855469 4.74609,10.601563 10.60156,10.601563 5.85156,0 10.59766,-4.746094 10.59766,-10.601563 0,-5.855468 -4.7461,-10.601562 -10.59766,-10.601562 z m 0,0"
         clip-rule="nonzero"
         id="path3" />
    </clipPath>
    <clipPath
       id="f821ded2c0">
      <path
         d="M 0.59375,0.558594 H 21.792969 V 21.761719 H 0.59375 Z m 0,0"
         clip-rule="nonzero"
         id="path4" />
    </clipPath>
    <clipPath
       id="2216084dbf">
      <path
         d="m 11.195312,0.558594 c -5.855468,0 -10.601562,4.746094 -10.601562,10.601562 0,5.855469 4.746094,10.601563 10.601562,10.601563 5.851563,0 10.597657,-4.746094 10.597657,-10.601563 0,-5.855468 -4.746094,-10.601562 -10.597657,-10.601562 z m 0,0"
         clip-rule="nonzero"
         id="path5" />
    </clipPath>
    <clipPath
       id="57a5c7c952">
      <rect
         x="0"
         width="22"
         y="0"
         height="22"
         id="rect5" />
    </clipPath>
    <clipPath
       id="8f05e903ab">
      <path
         d="M 0.199219,8 H 294 V 91 H 0.199219 Z m 0,0"
         clip-rule="nonzero"
         id="path6" />
    </clipPath>
    <clipPath
       id="ecdc988480">
      <rect
         x="0"
         width="294"
         y="0"
         height="83"
         id="rect6" />
    </clipPath>
    <clipPath
       id="2d2783f44e">
      <path
         d="M 295.75781,17.945312 H 354.875 V 77 h -59.11719 z m 0,0"
         clip-rule="nonzero"
         id="path7" />
    </clipPath>
    <clipPath
       id="2731331901">
      <path
         d="m 326.57422,37.007812 h 35.07812 v 21.730469 h -35.07812 z m 0,0"
         clip-rule="nonzero"
         id="path8" />
    </clipPath>
    <clipPath
       id="16f2a06d45">
      <path
         d="m 328.60156,45.144531 24.47656,-7.789062 c 2,-0.636719 4.1836,-0.28125 5.87891,0.960937 1.69531,1.238282 2.69531,3.210938 2.69531,5.3125 v 8.488282 c 0,2.101562 -1,4.074218 -2.69531,5.3125 -1.69531,1.238281 -3.87891,1.59375 -5.87891,0.957031 l -24.47656,-7.785157 c -1.1875,-0.378906 -1.99609,-1.480468 -1.99609,-2.730468 0,-1.246094 0.80859,-2.347656 1.99609,-2.726563 z m 0,0"
         clip-rule="nonzero"
         id="path9" />
    </clipPath>
    <clipPath
       id="65323ebd77">
      <path
         d="M 0.601562,0.0078125 H 35.652344 V 21.738281 H 0.601562 Z m 0,0"
         clip-rule="nonzero"
         id="path10" />
    </clipPath>
    <clipPath
       id="dd1be4ffef">
      <path
         d="M 2.601562,8.144531 27.078125,0.355469 c 2,-0.636719 4.183594,-0.2812502 5.878906,0.960937 1.695313,1.238282 2.695313,3.210938 2.695313,5.3125 v 8.488282 c 0,2.101562 -1,4.074218 -2.695313,5.3125 -1.695312,1.238281 -3.878906,1.59375 -5.878906,0.957031 L 2.601562,13.601562 c -1.1875,-0.378906 -1.996093,-1.480468 -1.996093,-2.730468 0,-1.246094 0.808593,-2.347656 1.996093,-2.726563 z m 0,0"
         clip-rule="nonzero"
         id="path11" />
    </clipPath>
    <clipPath
       id="2a79f435a5">
      <rect
         x="0"
         width="36"
         y="0"
         height="22"
         id="rect11" />
    </clipPath>
    <clipPath
       id="3faac4f1fd">
      <rect
         x="0"
         width="90"
         y="0"
         height="79"
         id="rect12" />
    </clipPath>
    <clipPath
       id="fa6fca9304">
      <path
         d="m 344,53 h 5 v 5 h -5 z m 0,0"
         clip-rule="nonzero"
         id="path12" />
    </clipPath>
    <clipPath
       id="63fe4db5b0">
      <path
         d="m 346.02344,53.078125 2.83593,3.957031 -1.69531,1.214844 -2.83594,-3.957031 z m 0,0"
         clip-rule="nonzero"
         id="path13" />
    </clipPath>
    <clipPath
       id="17e4ba2423">
      <path
         d="m 346.02344,53.078125 2.83593,3.957031 -1.69531,1.214844 -2.83594,-3.957031 z m 0,0"
         clip-rule="nonzero"
         id="path14" />
    </clipPath>
    <clipPath
       id="9a095ae75a">
      <path
         d="m 344,36 h 6 v 6 h -6 z m 0,0"
         clip-rule="nonzero"
         id="path15" />
    </clipPath>
    <clipPath
       id="d838850109">
      <path
         d="m 344.69922,40.382812 3.23437,-3.640624 1.5586,1.386718 -3.23438,3.640625 z m 0,0"
         clip-rule="nonzero"
         id="path16" />
    </clipPath>
    <clipPath
       id="a1fac3495b">
      <path
         d="M 1,1 H 5 V 5.761719 H 1 Z m 0,0"
         clip-rule="nonzero"
         id="path17" />
    </clipPath>
    <clipPath
       id="d1c2a53d21">
      <path
         d="M 0.699219,4.382812 3.933594,0.742188 5.492188,2.128906 2.257812,5.769531 Z m 0,0"
         clip-rule="nonzero"
         id="path18" />
    </clipPath>
    <clipPath
       id="66e4c8cdf3">
      <path
         d="M 2.21875,5.734375 5.449219,2.09375 3.890625,0.707031 0.65625,4.347656 Z m 0,0"
         clip-rule="nonzero"
         id="path19" />
    </clipPath>
    <clipPath
       id="1ba368c8cb">
      <rect
         x="0"
         width="6"
         y="0"
         height="6"
         id="rect19" />
    </clipPath>
    <clipPath
       id="561ca0e16f">
      <rect
         x="0"
         width="374"
         y="0"
         height="132"
         id="rect20" />
    </clipPath>
  </defs>
  <g
     transform="translate(-2.544655,-6.1115206)"
     id="g139">
    <g
       clip-path="url(#561ca0e16f)"
       id="g138">
      <g
         clip-path="url(#6ac5db4695)"
         id="g40">
        <g
           transform="translate(133,49)"
           id="g39">
          <g
             clip-path="url(#a827d12e37)"
             id="g38">
            <g
               fill="#94c2da"
               fill-opacity="1"
               id="g22">
              <g
                 transform="translate(0.995206,65.924898)"
                 id="g21">
                <g
                   id="g20">
                  <path
                     d="m 14.34375,-30.921875 c 2.113281,-3.195313 4.660156,-4.796875 7.640625,-4.796875 4.601563,0 8.03125,1.960938 10.28125,5.875 0.5,-0.664062 1.097656,-1.367188 1.796875,-2.109375 0.695312,-0.75 1.8125,-1.5625 3.34375,-2.4375 1.539062,-0.882813 3.125,-1.328125 4.75,-1.328125 3.601562,0 6.625,1.386719 9.0625,4.15625 2.4375,2.773438 3.65625,7.359375 3.65625,13.765625 v 11.84375 c 0,1.042969 -0.03906,1.824219 -0.109375,2.34375 -0.0625,0.511719 -0.277344,1.105469 -0.640625,1.78125 C 53.539062,-0.609375 51.804688,0 48.921875,0 46.078125,0 44.335938,-0.628906 43.703125,-1.890625 43.390625,-2.566406 43.195312,-3.164062 43.125,-3.6875 43.0625,-4.207031 43.03125,-4.984375 43.03125,-6.015625 v -11.84375 c 0,-3.925781 -1.402344,-5.890625 -4.203125,-5.890625 -1.574219,0 -2.640625,0.523438 -3.203125,1.5625 -0.5625,1.03125 -0.84375,2.496094 -0.84375,4.390625 v 11.84375 c 0,1.085937 -0.03906,1.875 -0.109375,2.375 -0.0625,0.492187 -0.277344,1.074219 -0.640625,1.75 C 33.394531,-0.609375 31.632812,0 28.75,0 25.90625,0 24.171875,-0.628906 23.546875,-1.890625 23.234375,-2.566406 23.039062,-3.164062 22.96875,-3.6875 22.90625,-4.207031 22.875,-4.984375 22.875,-6.015625 v -11.84375 c 0,-3.925781 -1.402344,-5.890625 -4.203125,-5.890625 -2.710937,0 -4.0625,1.964844 -4.0625,5.890625 v 11.96875 c 0,1.042969 -0.03906,1.824219 -0.109375,2.34375 -0.0625,0.511719 -0.273438,1.105469 -0.625,1.78125 C 13.195312,-0.585938 11.4375,0 8.59375,0 5.75,0 4.015625,-0.609375 3.390625,-1.828125 c -0.324219,-0.675781 -0.523437,-1.257813 -0.59375,-1.75 -0.0625,-0.5 -0.09375,-1.289063 -0.09375,-2.375 v -23.8125 c 0,-1.039063 0.03125,-1.816406 0.09375,-2.328125 0.070313,-0.519531 0.289063,-1.097656 0.65625,-1.734375 0.675781,-1.21875 2.273437,-1.828125 4.796875,-1.828125 2.53125,0 4.175781,0.40625 4.9375,1.21875 0.769531,0.8125 1.15625,1.984375 1.15625,3.515625 z m 0,0"
                     id="path20" />
                </g>
              </g>
            </g>
            <g
               fill="#94c2da"
               fill-opacity="1"
               id="g25">
              <g
                 transform="translate(56.669846,65.924898)"
                 id="g24">
                <g
                   id="g23">
                  <path
                     d="m 13.875,-17.828125 c 0,1.917969 0.628906,3.40625 1.890625,4.46875 1.257813,1.0625 2.597656,1.59375 4.015625,1.59375 1.425781,0 2.757812,-0.414063 4,-1.25 1.238281,-0.84375 2.242188,-1.265625 3.015625,-1.265625 1.351563,0 3,1.199219 4.9375,3.59375 1.03125,1.304688 1.546875,2.476562 1.546875,3.515625 0,1.71875 -1.242188,3.320313 -3.71875,4.796875 -2.574219,1.8125 -5.730469,2.71875 -9.46875,2.71875 -4.199219,0 -8.234375,-1.507812 -12.109375,-4.53125 -1.855469,-1.445312 -3.371094,-3.375 -4.546875,-5.78125 -1.167969,-2.414062 -1.75,-5.078125 -1.75,-7.984375 0,-2.914063 0.582031,-5.554687 1.75,-7.921875 1.175781,-2.375 2.691406,-4.28125 4.546875,-5.71875 3.738281,-2.976562 7.726563,-4.46875 11.96875,-4.46875 1.71875,0 3.390625,0.242188 5.015625,0.71875 1.625,0.46875 2.816406,0.929688 3.578125,1.375 l 1.09375,0.6875 c 0.800781,0.542969 1.429687,0.96875 1.890625,1.28125 1.164062,0.90625 1.75,1.933594 1.75,3.078125 0,1.148437 -0.476562,2.445313 -1.421875,3.890625 -1.617187,2.480469 -3.167969,3.71875 -4.65625,3.71875 -0.867187,0 -2.085937,-0.492188 -3.65625,-1.484375 -0.8125,-0.769531 -1.976563,-1.15625 -3.484375,-1.15625 -1.511719,0 -2.921875,0.542969 -4.234375,1.625 -1.304687,1.085937 -1.953125,2.585937 -1.953125,4.5 z m 0,0"
                     id="path22" />
                </g>
              </g>
            </g>
            <g
               fill="#94c2da"
               fill-opacity="1"
               id="g28">
              <g
                 transform="translate(89.749756,65.924898)"
                 id="g27">
                <g
                   id="g26">
                  <path
                     d="m 14.34375,-30.921875 c 2.113281,-3.195313 4.660156,-4.796875 7.640625,-4.796875 4.601563,0 8.03125,1.960938 10.28125,5.875 0.5,-0.664062 1.097656,-1.367188 1.796875,-2.109375 0.695312,-0.75 1.8125,-1.5625 3.34375,-2.4375 1.539062,-0.882813 3.125,-1.328125 4.75,-1.328125 3.601562,0 6.625,1.386719 9.0625,4.15625 2.4375,2.773438 3.65625,7.359375 3.65625,13.765625 v 11.84375 c 0,1.042969 -0.03906,1.824219 -0.109375,2.34375 -0.0625,0.511719 -0.277344,1.105469 -0.640625,1.78125 C 53.539062,-0.609375 51.804688,0 48.921875,0 46.078125,0 44.335938,-0.628906 43.703125,-1.890625 43.390625,-2.566406 43.195312,-3.164062 43.125,-3.6875 43.0625,-4.207031 43.03125,-4.984375 43.03125,-6.015625 v -11.84375 c 0,-3.925781 -1.402344,-5.890625 -4.203125,-5.890625 -1.574219,0 -2.640625,0.523438 -3.203125,1.5625 -0.5625,1.03125 -0.84375,2.496094 -0.84375,4.390625 v 11.84375 c 0,1.085937 -0.03906,1.875 -0.109375,2.375 -0.0625,0.492187 -0.277344,1.074219 -0.640625,1.75 C 33.394531,-0.609375 31.632812,0 28.75,0 25.90625,0 24.171875,-0.628906 23.546875,-1.890625 23.234375,-2.566406 23.039062,-3.164062 22.96875,-3.6875 22.90625,-4.207031 22.875,-4.984375 22.875,-6.015625 v -11.84375 c 0,-3.925781 -1.402344,-5.890625 -4.203125,-5.890625 -2.710937,0 -4.0625,1.964844 -4.0625,5.890625 v 11.96875 c 0,1.042969 -0.03906,1.824219 -0.109375,2.34375 -0.0625,0.511719 -0.273438,1.105469 -0.625,1.78125 C 13.195312,-0.585938 11.4375,0 8.59375,0 5.75,0 4.015625,-0.609375 3.390625,-1.828125 c -0.324219,-0.675781 -0.523437,-1.257813 -0.59375,-1.75 -0.0625,-0.5 -0.09375,-1.289063 -0.09375,-2.375 v -23.8125 c 0,-1.039063 0.03125,-1.816406 0.09375,-2.328125 0.070313,-0.519531 0.289063,-1.097656 0.65625,-1.734375 0.675781,-1.21875 2.273437,-1.828125 4.796875,-1.828125 2.53125,0 4.175781,0.40625 4.9375,1.21875 0.769531,0.8125 1.15625,1.984375 1.15625,3.515625 z m 0,0"
                     id="path25" />
                </g>
              </g>
            </g>
            <g
               fill="#94c2da"
               fill-opacity="1"
               id="g31">
              <g
                 transform="translate(145.4244,65.924898)"
                 id="g30">
                <g
                   id="g29">
                  <path
                     d="m 25.84375,-31.859375 c 0.269531,-2.53125 2.050781,-3.796875 5.34375,-3.796875 1.757812,0 3.066406,0.136719 3.921875,0.40625 0.863281,0.273438 1.460937,0.746094 1.796875,1.421875 0.332031,0.679687 0.53125,1.277344 0.59375,1.796875 0.07031,0.523438 0.109375,1.296875 0.109375,2.328125 v 23.6875 c 0,1.03125 -0.03906,1.808594 -0.109375,2.328125 -0.0625,0.523438 -0.25,1.121094 -0.5625,1.796875 -0.625,1.167969 -2.167969,1.75 -4.625,1.75 -2.460938,0 -4.109375,-0.300781 -4.953125,-0.90625 -0.835937,-0.613281 -1.320313,-1.503906 -1.453125,-2.671875 -1.667969,2.386719 -4.453125,3.578125 -8.359375,3.578125 -3.898437,0 -7.515625,-1.78125 -10.859375,-5.34375 -3.335938,-3.5625 -5,-7.695313 -5,-12.40625 0,-4.71875 1.675781,-8.847656 5.03125,-12.390625 3.363281,-3.539062 7.054688,-5.3125 11.078125,-5.3125 1.53125,0 2.925781,0.273438 4.1875,0.8125 1.257813,0.542969 2.140625,1.054688 2.640625,1.53125 0.5,0.46875 0.90625,0.933594 1.21875,1.390625 z m -12.3125,14.0625 c 0,1.492187 0.582031,2.835937 1.75,4.03125 1.175781,1.199219 2.597656,1.796875 4.265625,1.796875 1.675781,0 3.066406,-0.609375 4.171875,-1.828125 1.101562,-1.21875 1.65625,-2.5625 1.65625,-4.03125 0,-1.46875 -0.53125,-2.832031 -1.59375,-4.09375 -1.0625,-1.257813 -2.484375,-1.890625 -4.265625,-1.890625 -1.78125,0 -3.226563,0.632812 -4.328125,1.890625 -1.105469,1.261719 -1.65625,2.636719 -1.65625,4.125 z m 0,0"
                     id="path28" />
                </g>
              </g>
            </g>
            <g
               fill="#94c2da"
               fill-opacity="1"
               id="g34">
              <g
                 transform="translate(183.84856,65.924898)"
                 id="g33">
                <g
                   id="g32">
                  <path
                     d="m 2.703125,-29.703125 c 0,-1.03125 0.03125,-1.804687 0.09375,-2.328125 0.070313,-0.519531 0.269531,-1.117188 0.59375,-1.796875 0.625,-1.175781 2.378906,-1.765625 5.265625,-1.765625 2.164062,0 3.703125,0.386719 4.609375,1.15625 0.757813,0.636719 1.164063,1.605469 1.21875,2.90625 0.03906,0.460938 0.0625,1.117188 0.0625,1.96875 v 23.671875 c 0,1.042969 -0.03906,1.824219 -0.109375,2.34375 -0.0625,0.511719 -0.277344,1.105469 -0.640625,1.78125 C 13.210938,-0.585938 11.476562,0 8.59375,0 5.75,0 4.015625,-0.609375 3.390625,-1.828125 c -0.324219,-0.675781 -0.523437,-1.257813 -0.59375,-1.75 -0.0625,-0.5 -0.09375,-1.289063 -0.09375,-2.375 z M 13.828125,-42.25 c -0.335937,0.65625 -0.933594,1.121094 -1.796875,1.390625 -0.855469,0.273437 -1.992188,0.40625 -3.40625,0.40625 -1.417969,0 -2.558594,-0.132813 -3.421875,-0.40625 C 4.347656,-41.128906 3.75,-41.601562 3.40625,-42.28125 c -0.335938,-0.675781 -0.539062,-1.273438 -0.609375,-1.796875 -0.0625,-0.519531 -0.09375,-1.296875 -0.09375,-2.328125 0,-1.039062 0.03125,-1.820312 0.09375,-2.34375 0.070313,-0.519531 0.269531,-1.09375 0.59375,-1.71875 0.625,-1.21875 2.378906,-1.828125 5.265625,-1.828125 2.84375,0 4.554688,0.609375 5.140625,1.828125 0.363281,0.679688 0.578125,1.277344 0.640625,1.796875 0.07031,0.511719 0.109375,1.289063 0.109375,2.328125 0,1.042969 -0.03906,1.824219 -0.109375,2.34375 -0.0625,0.511719 -0.265625,1.09375 -0.609375,1.75 z m 0,0"
                     id="path31" />
                </g>
              </g>
            </g>
            <g
               fill="#94c2da"
               fill-opacity="1"
               id="g37">
              <g
                 transform="translate(199.20447,65.924898)"
                 id="g36">
                <g
                   id="g35">
                  <path
                     d="m 22.53125,-35.65625 c 4.507812,0 8.265625,1.730469 11.265625,5.1875 3,3.449219 4.5,7.652344 4.5,12.609375 v 11.90625 c 0,1.042969 -0.03906,1.824219 -0.109375,2.34375 -0.0625,0.511719 -0.257812,1.085937 -0.578125,1.71875 -0.625,1.21875 -2.382813,1.828125 -5.265625,1.828125 -3.210938,0 -5.058594,-0.835938 -5.546875,-2.515625 -0.273437,-0.757813 -0.40625,-1.90625 -0.40625,-3.4375 v -11.90625 c 0,-1.851563 -0.53125,-3.296875 -1.59375,-4.328125 -1.0625,-1.039062 -2.484375,-1.5625 -4.265625,-1.5625 -1.78125,0 -3.226562,0.542969 -4.328125,1.625 -1.105469,1.085938 -1.65625,2.507812 -1.65625,4.265625 v 11.96875 c 0,1.042969 -0.03906,1.824219 -0.109375,2.34375 -0.0625,0.511719 -0.277344,1.085937 -0.640625,1.71875 C 13.210938,-0.671875 11.476562,-0.0625 8.59375,-0.0625 5.75,-0.0625 4.015625,-0.671875 3.390625,-1.890625 3.066406,-2.566406 2.867188,-3.164062 2.796875,-3.6875 2.734375,-4.207031 2.703125,-4.984375 2.703125,-6.015625 V -29.96875 c 0,-0.988281 0.03125,-1.742188 0.09375,-2.265625 0.070313,-0.519531 0.289063,-1.097656 0.65625,-1.734375 0.625,-1.125 2.359375,-1.6875 5.203125,-1.6875 2.75,0 4.441406,0.523438 5.078125,1.5625 0.445313,0.761719 0.671875,1.683594 0.671875,2.765625 0.1875,-0.3125 0.59375,-0.757813 1.21875,-1.34375 0.632812,-0.59375 1.242188,-1.066406 1.828125,-1.421875 1.53125,-1.039062 3.222656,-1.5625 5.078125,-1.5625 z m 0,0"
                     id="path34" />
                </g>
              </g>
            </g>
          </g>
        </g>
      </g>
      <g
         clip-path="url(#cd9e770057)"
         id="g46">
        <g
           clip-path="url(#f4a187a977)"
           id="g45">
          <g
             transform="translate(314,56)"
             id="g44">
            <g
               clip-path="url(#57a5c7c952)"
               id="g43">
              <g
                 clip-path="url(#f821ded2c0)"
                 id="g42">
                <g
                   clip-path="url(#2216084dbf)"
                   id="g41">
                  <path
                     fill="#ffffff"
                     d="M 0.59375,0.558594 H 21.792969 V 21.761719 H 0.59375 Z m 0,0"
                     fill-opacity="1"
                     fill-rule="nonzero"
                     id="path40" />
                </g>
              </g>
            </g>
          </g>
        </g>
      </g>
      <g
         clip-path="url(#8f05e903ab)"
         id="g76">
        <g
           transform="translate(0,8)"
           id="g75">
          <g
             clip-path="url(#ecdc988480)"
             id="g74">
            <g
               fill="#203f9a"
               fill-opacity="1"
               id="g49">
              <g
                 transform="translate(0.857155,65.888128)"
                 id="g48">
                <g
                   id="g47">
                  <path
                     d="m 13.875,-17.828125 c 0,1.917969 0.628906,3.40625 1.890625,4.46875 1.257813,1.0625 2.597656,1.59375 4.015625,1.59375 1.425781,0 2.757812,-0.414063 4,-1.25 1.238281,-0.84375 2.242188,-1.265625 3.015625,-1.265625 1.351563,0 3,1.199219 4.9375,3.59375 1.03125,1.304688 1.546875,2.476562 1.546875,3.515625 0,1.71875 -1.242188,3.320313 -3.71875,4.796875 -2.574219,1.8125 -5.730469,2.71875 -9.46875,2.71875 -4.199219,0 -8.234375,-1.507812 -12.109375,-4.53125 -1.855469,-1.445312 -3.371094,-3.375 -4.546875,-5.78125 -1.167969,-2.414062 -1.75,-5.078125 -1.75,-7.984375 0,-2.914063 0.582031,-5.554687 1.75,-7.921875 1.175781,-2.375 2.691406,-4.28125 4.546875,-5.71875 3.738281,-2.976562 7.726563,-4.46875 11.96875,-4.46875 1.71875,0 3.390625,0.242188 5.015625,0.71875 1.625,0.46875 2.816406,0.929688 3.578125,1.375 l 1.09375,0.6875 c 0.800781,0.542969 1.429687,0.96875 1.890625,1.28125 1.164062,0.90625 1.75,1.933594 1.75,3.078125 0,1.148437 -0.476562,2.445313 -1.421875,3.890625 -1.617187,2.480469 -3.167969,3.71875 -4.65625,3.71875 -0.867187,0 -2.085937,-0.492188 -3.65625,-1.484375 -0.8125,-0.769531 -1.976563,-1.15625 -3.484375,-1.15625 -1.511719,0 -2.921875,0.542969 -4.234375,1.625 -1.304687,1.085937 -1.953125,2.585937 -1.953125,4.5 z m 0,0"
                     id="path46" />
                </g>
              </g>
            </g>
            <g
               fill="#203f9a"
               fill-opacity="1"
               id="g52">
              <g
                 transform="translate(33.801733,65.888128)"
                 id="g51">
                <g
                   id="g50">
                  <path
                     d="m 22.46875,-35.515625 c 4.507812,0 8.257812,1.714844 11.25,5.140625 3,3.429688 4.5,7.621094 4.5,12.578125 v 11.90625 c 0,1.042969 -0.03906,1.824219 -0.109375,2.34375 -0.0625,0.511719 -0.273437,1.105469 -0.625,1.78125 C 36.898438,-0.585938 35.160156,0 32.265625,0 c -2.75,0 -4.464844,-0.585938 -5.140625,-1.765625 -0.355469,-0.675781 -0.570312,-1.28125 -0.640625,-1.8125 -0.0625,-0.539063 -0.09375,-1.351563 -0.09375,-2.4375 v -11.84375 c 0,-1.851563 -0.523437,-3.296875 -1.5625,-4.328125 -1.03125,-1.039062 -2.351563,-1.5625 -3.953125,-1.5625 -1.605469,0 -3.015625,0.484375 -4.234375,1.453125 -1.21875,0.96875 -1.917969,2.0625 -2.09375,3.28125 v 13.125 c 0,1.042969 -0.03906,1.824219 -0.109375,2.34375 -0.0625,0.511719 -0.277344,1.105469 -0.640625,1.78125 C 13.210938,-0.585938 11.476562,0 8.59375,0 5.75,0 4.015625,-0.609375 3.390625,-1.828125 c -0.324219,-0.675781 -0.523437,-1.257813 -0.59375,-1.75 -0.0625,-0.5 -0.09375,-1.289063 -0.09375,-2.375 V -46.40625 c 0,-1.039062 0.03125,-1.820312 0.09375,-2.34375 0.070313,-0.519531 0.269531,-1.09375 0.59375,-1.71875 0.625,-1.21875 2.378906,-1.828125 5.265625,-1.828125 2.84375,0 4.554688,0.609375 5.140625,1.828125 0.363281,0.679688 0.578125,1.277344 0.640625,1.796875 0.07031,0.511719 0.109375,1.289063 0.109375,2.328125 v 14.953125 c 2.25,-2.75 4.890625,-4.125 7.921875,-4.125 z m 0,0"
                     id="path49" />
                </g>
              </g>
            </g>
            <g
               fill="#203f9a"
               fill-opacity="1"
               id="g55">
              <g
                 transform="translate(72.699411,65.888128)"
                 id="g54">
                <g
                   id="g53">
                  <path
                     d="m 25.84375,-31.859375 c 0.269531,-2.53125 2.050781,-3.796875 5.34375,-3.796875 1.757812,0 3.066406,0.136719 3.921875,0.40625 0.863281,0.273438 1.460937,0.746094 1.796875,1.421875 0.332031,0.679687 0.53125,1.277344 0.59375,1.796875 0.07031,0.523438 0.109375,1.296875 0.109375,2.328125 v 23.6875 c 0,1.03125 -0.03906,1.808594 -0.109375,2.328125 -0.0625,0.523438 -0.25,1.121094 -0.5625,1.796875 -0.625,1.167969 -2.167969,1.75 -4.625,1.75 -2.460938,0 -4.109375,-0.300781 -4.953125,-0.90625 -0.835937,-0.613281 -1.320313,-1.503906 -1.453125,-2.671875 -1.667969,2.386719 -4.453125,3.578125 -8.359375,3.578125 -3.898437,0 -7.515625,-1.78125 -10.859375,-5.34375 -3.335938,-3.5625 -5,-7.695313 -5,-12.40625 0,-4.71875 1.675781,-8.847656 5.03125,-12.390625 3.363281,-3.539062 7.054688,-5.3125 11.078125,-5.3125 1.53125,0 2.925781,0.273438 4.1875,0.8125 1.257813,0.542969 2.140625,1.054688 2.640625,1.53125 0.5,0.46875 0.90625,0.933594 1.21875,1.390625 z m -12.3125,14.0625 c 0,1.492187 0.582031,2.835937 1.75,4.03125 1.175781,1.199219 2.597656,1.796875 4.265625,1.796875 1.675781,0 3.066406,-0.609375 4.171875,-1.828125 1.101562,-1.21875 1.65625,-2.5625 1.65625,-4.03125 0,-1.46875 -0.53125,-2.832031 -1.59375,-4.09375 -1.0625,-1.257813 -2.484375,-1.890625 -4.265625,-1.890625 -1.78125,0 -3.226563,0.632812 -4.328125,1.890625 -1.105469,1.261719 -1.65625,2.636719 -1.65625,4.125 z m 0,0"
                     id="path52" />
                </g>
              </g>
            </g>
            <g
               fill="#203f9a"
               fill-opacity="1"
               id="g58">
              <g
                 transform="translate(110.98825,65.888128)"
                 id="g57">
                <g
                   id="g56">
                  <path
                     d="m 26.921875,-35.25 c 0.863281,0.273438 1.578125,0.734375 2.140625,1.390625 0.5625,0.65625 0.84375,1.710937 0.84375,3.15625 0,1.4375 -0.433594,3.015625 -1.296875,4.734375 -0.855469,1.710938 -2.09375,2.5625 -3.71875,2.5625 -0.804687,0 -1.578125,-0.175781 -2.328125,-0.53125 -0.742188,-0.363281 -1.71875,-0.546875 -2.9375,-0.546875 -1.21875,0 -2.359375,0.429687 -3.421875,1.28125 -1.0625,0.855469 -1.59375,1.890625 -1.59375,3.109375 v 14.203125 c 0,1.042969 -0.03906,1.824219 -0.109375,2.34375 -0.0625,0.511719 -0.273438,1.105469 -0.625,1.78125 C 13.195312,-0.585938 11.4375,0 8.59375,0 6.425781,0 4.867188,-0.382812 3.921875,-1.15625 c -0.71875,-0.625 -1.125,-1.59375 -1.21875,-2.90625 0,-0.445312 0,-1.097656 0,-1.953125 v -23.75 c 0,-1.039063 0.03125,-1.816406 0.09375,-2.328125 0.070313,-0.519531 0.269531,-1.097656 0.59375,-1.734375 0.625,-1.21875 2.378906,-1.828125 5.265625,-1.828125 2.707031,0 4.398438,0.523438 5.078125,1.5625 0.5,0.71875 0.75,1.464844 0.75,2.234375 0.21875,-0.320313 0.539063,-0.707031 0.96875,-1.15625 0.4375,-0.445313 1.351563,-1.054687 2.75,-1.828125 1.394531,-0.769531 2.625,-1.15625 3.6875,-1.15625 1.0625,0 1.953125,0.05859 2.671875,0.171875 0.71875,0.117187 1.503906,0.308594 2.359375,0.578125 z m 0,0"
                     id="path55" />
                </g>
              </g>
            </g>
            <g
               fill="#203f9a"
               fill-opacity="1"
               id="g61">
              <g
                 transform="translate(139.87389,65.888128)"
                 id="g60">
                <g
                   id="g59">
                  <path
                     d="m 2.703125,-46.484375 c 0,-1.03125 0.03125,-1.804687 0.09375,-2.328125 0.070313,-0.519531 0.269531,-1.117188 0.59375,-1.796875 0.625,-1.21875 2.378906,-1.828125 5.265625,-1.828125 2.75,0 4.460938,0.609375 5.140625,1.828125 0.363281,0.679687 0.578125,1.289063 0.640625,1.828125 0.07031,0.542969 0.109375,1.335938 0.109375,2.375 v 31.3125 c 0,1.625 0.132813,2.65625 0.40625,3.09375 0.269531,0.429688 0.863281,0.640625 1.78125,0.640625 0.925781,0 1.546875,0.03906 1.859375,0.109375 0.320312,0.0625 0.707031,0.25 1.15625,0.5625 0.90625,0.585938 1.359375,2.183594 1.359375,4.796875 0,2.84375 -0.453125,4.585937 -1.359375,5.21875 -1.167969,0.8125 -3.964844,0.945313 -8.390625,0.40625 C 7.890625,-0.722656 5.632812,-1.875 4.59375,-3.71875 3.332031,-5.925781 2.703125,-9.445312 2.703125,-14.28125 Z m 0,0"
                     id="path58" />
                </g>
              </g>
            </g>
            <g
               fill="#203f9a"
               fill-opacity="1"
               id="g64">
              <g
                 transform="translate(159.96518,65.888128)"
                 id="g63">
                <g
                   id="g62">
                  <path
                     d="m 1.6875,-17.796875 c 0,-5.40625 1.894531,-9.867187 5.6875,-13.390625 3.789062,-3.519531 8.117188,-5.28125 12.984375,-5.28125 4.875,0 9.179687,1.75 12.921875,5.25 3.75,3.492188 5.625,7.945312 5.625,13.359375 0,3.742187 -0.976562,7.070313 -2.921875,9.984375 -1.9375,2.90625 -4.292969,5.046875 -7.0625,6.421875 -2.773437,1.375 -5.648437,2.0625 -8.625,2.0625 -2.980469,0 -5.871094,-0.726563 -8.671875,-2.1875 -2.792969,-1.46875 -5.148438,-3.632813 -7.0625,-6.5 -1.917969,-2.863281 -2.875,-6.101563 -2.875,-9.71875 z m 14.140625,4.84375 c 1.445313,1.105469 2.914063,1.65625 4.40625,1.65625 1.488281,0 2.972656,-0.5625 4.453125,-1.6875 1.488281,-1.132813 2.234375,-2.804687 2.234375,-5.015625 0,-2.207031 -0.699219,-3.851562 -2.09375,-4.9375 -1.398437,-1.082031 -2.90625,-1.625 -4.53125,-1.625 -1.625,0 -3.136719,0.570312 -4.53125,1.703125 -1.398437,1.125 -2.09375,2.78125 -2.09375,4.96875 0,2.1875 0.71875,3.835937 2.15625,4.9375 z m 0,0"
                     id="path61" />
                </g>
              </g>
            </g>
            <g
               fill="#203f9a"
               fill-opacity="1"
               id="g67">
              <g
                 transform="translate(198.52462,65.888128)"
                 id="g66">
                <g
                   id="g65">
                  <path
                     d="m 23.40625,-23.6875 -4.390625,-0.265625 v 9.34375 c 0,1.21875 0.1875,2.101563 0.5625,2.640625 0.382813,0.542969 1.109375,0.8125 2.171875,0.8125 1.0625,0 1.875,0.03906 2.4375,0.109375 0.5625,0.0625 1.160156,0.273437 1.796875,0.625 1.03125,0.585937 1.546875,2.09375 1.546875,4.53125 0,2.84375 -0.632812,4.585937 -1.890625,5.21875 -0.679687,0.3125 -1.277344,0.507813 -1.796875,0.578125 C 23.332031,-0.03125 22.578125,0 21.578125,0 c -4.6875,0 -8.25,-1.054688 -10.6875,-3.171875 -2.4375,-2.125 -3.65625,-5.710937 -3.65625,-10.765625 V -23.953125 C 6.378906,-23.816406 5.457031,-23.75 4.46875,-23.75 3.476562,-23.75 2.65625,-24.128906 2,-24.890625 1.34375,-25.660156 1.015625,-26.96875 1.015625,-28.8125 c 0,-1.851562 0.109375,-3.195312 0.328125,-4.03125 0.226562,-0.832031 0.546875,-1.429688 0.953125,-1.796875 0.726563,-0.582031 1.628906,-0.875 2.703125,-0.875 L 7.234375,-35.25 v -6.96875 c 0,-1.039062 0.03125,-1.804688 0.09375,-2.296875 0.070313,-0.5 0.289063,-1.039063 0.65625,-1.625 0.582031,-1.125 2.316406,-1.6875 5.203125,-1.6875 3.070312,0 4.898438,0.835937 5.484375,2.5 0.226563,0.71875 0.34375,1.871094 0.34375,3.453125 v 6.625 c 1.976563,-0.175781 3.472656,-0.265625 4.484375,-0.265625 1.019531,0 1.789062,0.03906 2.3125,0.109375 0.519531,0.0625 1.117188,0.273438 1.796875,0.625 1.164063,0.59375 1.75,2.335938 1.75,5.21875 0,2.84375 -0.609375,4.578125 -1.828125,5.203125 -0.679688,0.324219 -1.277344,0.515625 -1.796875,0.578125 -0.511719,0.0625 -1.289063,0.09375 -2.328125,0.09375 z m 0,0"
                     id="path64" />
                </g>
              </g>
            </g>
            <g
               fill="#203f9a"
               fill-opacity="1"
               id="g70">
              <g
                 transform="translate(226.86907,65.888128)"
                 id="g69">
                <g
                   id="g68">
                  <path
                     d="m 23.40625,-23.6875 -4.390625,-0.265625 v 9.34375 c 0,1.21875 0.1875,2.101563 0.5625,2.640625 0.382813,0.542969 1.109375,0.8125 2.171875,0.8125 1.0625,0 1.875,0.03906 2.4375,0.109375 0.5625,0.0625 1.160156,0.273437 1.796875,0.625 1.03125,0.585937 1.546875,2.09375 1.546875,4.53125 0,2.84375 -0.632812,4.585937 -1.890625,5.21875 -0.679687,0.3125 -1.277344,0.507813 -1.796875,0.578125 C 23.332031,-0.03125 22.578125,0 21.578125,0 c -4.6875,0 -8.25,-1.054688 -10.6875,-3.171875 -2.4375,-2.125 -3.65625,-5.710937 -3.65625,-10.765625 V -23.953125 C 6.378906,-23.816406 5.457031,-23.75 4.46875,-23.75 3.476562,-23.75 2.65625,-24.128906 2,-24.890625 1.34375,-25.660156 1.015625,-26.96875 1.015625,-28.8125 c 0,-1.851562 0.109375,-3.195312 0.328125,-4.03125 0.226562,-0.832031 0.546875,-1.429688 0.953125,-1.796875 0.726563,-0.582031 1.628906,-0.875 2.703125,-0.875 L 7.234375,-35.25 v -6.96875 c 0,-1.039062 0.03125,-1.804688 0.09375,-2.296875 0.070313,-0.5 0.289063,-1.039063 0.65625,-1.625 0.582031,-1.125 2.316406,-1.6875 5.203125,-1.6875 3.070312,0 4.898438,0.835937 5.484375,2.5 0.226563,0.71875 0.34375,1.871094 0.34375,3.453125 v 6.625 c 1.976563,-0.175781 3.472656,-0.265625 4.484375,-0.265625 1.019531,0 1.789062,0.03906 2.3125,0.109375 0.519531,0.0625 1.117188,0.273438 1.796875,0.625 1.164063,0.59375 1.75,2.335938 1.75,5.21875 0,2.84375 -0.609375,4.578125 -1.828125,5.203125 -0.679688,0.324219 -1.277344,0.515625 -1.796875,0.578125 -0.511719,0.0625 -1.289063,0.09375 -2.328125,0.09375 z m 0,0"
                     id="path67" />
                </g>
              </g>
            </g>
            <g
               fill="#203f9a"
               fill-opacity="1"
               id="g73">
              <g
                 transform="translate(255.21352,65.888128)"
                 id="g72">
                <g
                   id="g71">
                  <path
                     d="m 37.078125,-22.078125 c 0,2.773437 -0.6875,4.824219 -2.0625,6.15625 -1.375,1.324219 -2.898437,1.984375 -4.5625,1.984375 H 14.40625 c 0,1.261719 0.742188,2.324219 2.234375,3.1875 1.488281,0.855469 2.976563,1.28125 4.46875,1.28125 2.613281,0 4.664063,-0.269531 6.15625,-0.8125 l 0.75,-0.265625 c 1.082031,-0.5 1.984375,-0.75 2.703125,-0.75 1.4375,0 2.675781,1.015625 3.71875,3.046875 0.582031,1.21875 0.875,2.257812 0.875,3.109375 0,4.011719 -4.804688,6.015625 -14.40625,6.015625 -3.335938,0 -6.296875,-0.574219 -8.890625,-1.71875 C 9.421875,-2 7.398438,-3.519531 5.953125,-5.40625 3.109375,-9.0625 1.6875,-13.144531 1.6875,-17.65625 c 0,-5.6875 1.835938,-10.234375 5.515625,-13.640625 3.675781,-3.40625 8.265625,-5.109375 13.765625,-5.109375 6.269531,0 10.875,2.214844 13.8125,6.640625 1.53125,2.34375 2.296875,4.90625 2.296875,7.6875 z m -14.28125,1.984375 c 1.71875,0 2.578125,-0.722656 2.578125,-2.171875 0,-1.03125 -0.398438,-1.859375 -1.1875,-2.484375 -0.792969,-0.632812 -1.921875,-0.953125 -3.390625,-0.953125 -1.460937,0 -2.914063,0.601563 -4.359375,1.796875 -1.4375,1.1875 -2.15625,2.460938 -2.15625,3.8125 z m 0,0"
                     id="path70" />
                </g>
              </g>
            </g>
          </g>
        </g>
      </g>
      <g
         clip-path="url(#2d2783f44e)"
         id="g77">
        <path
           fill="#e7a0cc"
           d="m 325.26562,59.625 c -6.72265,0 -12.16796,-5.449219 -12.16796,-12.167969 0,-6.722656 5.44531,-12.171875 12.16796,-12.171875 6.72266,0 12.17188,5.449219 12.17188,12.171875 0,6.71875 -5.44922,12.167969 -12.17188,12.167969 z m 27.91797,-17.859375 -5.44922,-0.644531 c -0.49218,-1.75 -1.1914,-3.457032 -2.09765,-5.074219 l 3.39453,-4.308594 c 0.56641,-0.71875 0.50391,-1.746093 -0.14063,-2.394531 L 343.375,23.832031 C 342.73047,23.1875 341.70312,23.125 340.98437,23.691406 l -4.30859,3.394532 c -1.61719,-0.90625 -3.32422,-1.605469 -5.07422,-2.097657 l -0.64453,-5.449219 c -0.10937,-0.910156 -0.87891,-1.59375 -1.79297,-1.59375 h -7.79687 c -0.91407,0 -1.6836,0.683594 -1.78907,1.59375 l -0.64843,5.449219 c -1.75,0.492188 -3.45313,1.191407 -5.07032,2.097657 l -4.30859,-3.394532 C 308.83203,23.125 307.80469,23.1875 307.15625,23.832031 l -5.51172,5.511719 c -0.64844,0.648438 -0.70703,1.675781 -0.14062,2.394531 l 3.39453,4.308594 c -0.91016,1.617187 -1.60938,3.324219 -2.09766,5.074219 l -5.44922,0.644531 c -0.91015,0.105469 -1.59375,0.878906 -1.59375,1.792969 v 7.792968 c 0,0.917969 0.6836,1.6875 1.59375,1.792969 l 5.44922,0.644531 c 0.48828,1.75 1.1875,3.457032 2.09766,5.074219 l -3.39453,4.308594 c -0.56641,0.71875 -0.50782,1.746094 0.14062,2.394531 l 5.51172,5.511719 c 0.64844,0.644531 1.67578,0.707031 2.39453,0.140625 l 4.30859,-3.394531 c 1.61719,0.90625 3.32032,1.605469 5.07032,2.097656 l 0.64843,5.449219 c 0.10547,0.910156 0.875,1.59375 1.78907,1.59375 h 7.66797 c 0.89843,0 1.66015,-0.660156 1.78906,-1.550782 l 0.77734,-5.492187 c 1.75,-0.492187 3.45703,-1.191406 5.07422,-2.097656 l 4.30859,3.394531 c 0.71875,0.566406 1.7461,0.503906 2.39063,-0.140625 l 5.51562,-5.511719 c 0.64454,-0.648437 0.70704,-1.675781 0.14063,-2.394531 l -3.39453,-4.308594 c 0.90625,-1.617187 1.60547,-3.324219 2.09765,-5.074219 l 5.44922,-0.644531 c 0.91016,-0.105469 1.59375,-0.875 1.59375,-1.792969 v -7.792968 c 0,-0.914063 -0.68359,-1.6875 -1.59375,-1.792969"
           fill-opacity="1"
           fill-rule="nonzero"
           id="path76" />
      </g>
      <g
         clip-path="url(#2731331901)"
         id="g83">
        <g
           clip-path="url(#16f2a06d45)"
           id="g82">
          <g
             transform="translate(326,37)"
             id="g81">
            <g
               clip-path="url(#2a79f435a5)"
               id="g80">
              <g
                 clip-path="url(#65323ebd77)"
                 id="g79">
                <g
                   clip-path="url(#dd1be4ffef)"
                   id="g78">
                  <path
                     fill="#ffffff"
                     d="M 35.652344,-2.371094 V 24.117188 H -5.945312 V -2.371094 Z m 0,0"
                     fill-opacity="1"
                     fill-rule="nonzero"
                     id="path77" />
                </g>
              </g>
            </g>
          </g>
        </g>
      </g>
      <g
         transform="translate(284)"
         id="g127">
        <g
           clip-path="url(#3faac4f1fd)"
           id="g126">
          <g
             fill="#e7a0cc"
             fill-opacity="1"
             id="g86">
            <g
               transform="translate(10.440459,32.068773)"
               id="g85">
              <g
                 id="g84">
                <path
                   d="m -0.640625,-1.015625 c -0.28125,0.03125 -0.492187,0 -0.640625,-0.09375 -0.15625,-0.09375 -0.28125,-0.347656 -0.375,-0.765625 -0.050781,-0.226562 -0.023438,-0.425781 0.078125,-0.59375 0.105469,-0.164062 0.398437,-0.3125 0.875,-0.4375 0.15625,0 0.328125,-0.046875 0.515625,-0.140625 C 0,-3.148438 0.132812,-3.269531 0.21875,-3.40625 0.5625,-3.957031 0.503906,-4.378906 0.046875,-4.671875 c -0.125,-0.082031 -0.28125,-0.078125 -0.46875,0.015625 -0.1875,0.09375 -0.367187,0.246094 -0.546875,0.453125 -0.1875,0.210937 -0.40625,0.414063 -0.65625,0.609375 -0.257812,0.199219 -0.519531,0.375 -0.78125,0.53125 -0.269531,0.148438 -0.582031,0.210938 -0.9375,0.1875 -0.363281,-0.019531 -0.738281,-0.144531 -1.125,-0.375 C -5,-3.582031 -5.335938,-4.0625 -5.484375,-4.6875 c -0.15625,-0.632812 -0.023437,-1.285156 0.390625,-1.953125 0.21875,-0.351563 0.46875,-0.644531 0.75,-0.875 0.273438,-0.238281 0.496094,-0.390625 0.671875,-0.453125 l 0.3125,-0.125 c 0.28125,-0.082031 0.484375,-0.082031 0.609375,0 0.117188,0.074219 0.234375,0.246094 0.359375,0.515625 0.15625,0.386719 0.171875,0.6875 0.046875,0.90625 -0.082031,0.125 -0.238281,0.242187 -0.46875,0.34375 -0.03125,0.011719 -0.082031,0.03125 -0.15625,0.0625 -0.070312,0.023437 -0.144531,0.042969 -0.21875,0.0625 -0.132812,0.074219 -0.257812,0.210937 -0.375,0.40625 -0.125,0.1875 -0.179688,0.375 -0.171875,0.5625 0.011719,0.1875 0.101563,0.335937 0.265625,0.4375 0.15625,0.09375 0.335938,0.101563 0.53125,0.015625 0.199219,-0.09375 0.386719,-0.238281 0.5625,-0.4375 0.167969,-0.207031 0.375,-0.421875 0.625,-0.640625 0.242188,-0.21875 0.484375,-0.410156 0.734375,-0.578125 0.242187,-0.164062 0.542969,-0.238281 0.90625,-0.21875 0.351563,0.011719 0.722656,0.136719 1.109375,0.375 0.382812,0.242188 0.675781,0.53125 0.875,0.875 0.195312,0.335938 0.300781,0.679688 0.3125,1.03125 0.019531,0.6875 -0.140625,1.296875 -0.484375,1.828125 C 1.535156,-2.253906 1.335938,-2.007812 1.109375,-1.8125 0.878906,-1.613281 0.664062,-1.460938 0.46875,-1.359375 0.0703125,-1.160156 -0.25,-1.054688 -0.5,-1.046875 Z m 0,0"
                   id="path83" />
              </g>
            </g>
          </g>
          <g
             fill="#e7a0cc"
             fill-opacity="1"
             id="g89">
            <g
               transform="translate(14.652747,25.504514)"
               id="g88">
              <g
                 id="g87">
                <path
                   d="M -4.640625,-6.21875 -0.40625,-10.25 C -0.25,-10.394531 -0.113281,-10.484375 0,-10.515625 c 0.101562,-0.03906 0.203125,-0.03516 0.296875,0.01563 0.101563,0.05469 0.21875,0.148438 0.34375,0.28125 0.125,0.136719 0.210937,0.257812 0.265625,0.359375 0.050781,0.105469 0.0625,0.203125 0.03125,0.296875 -0.042969,0.125 -0.148438,0.265625 -0.3125,0.421875 l -1.453125,1.375 3.640625,3.82812 c 0.113281,0.125 0.191406,0.21875 0.234375,0.28125 0.050781,0.0625 0.085937,0.152344 0.109375,0.265625 0.03125,0.105469 0.015625,0.21875 -0.046875,0.34375 -0.0625,0.125 -0.179687,0.261719 -0.34375,0.40625 -0.15625,0.148437 -0.296875,0.25 -0.421875,0.3125 -0.117188,0.054687 -0.226562,0.0625 -0.328125,0.03125 C 1.910156,-2.335938 1.820312,-2.378906 1.75,-2.421875 1.675781,-2.472656 1.585938,-2.554688 1.484375,-2.671875 L -2.15625,-6.5 -3.609375,-5.109375 c -0.15625,0.148437 -0.289063,0.242187 -0.40625,0.28125 -0.113281,0.03125 -0.222656,0.023437 -0.328125,-0.03125 C -4.445312,-4.910156 -4.5625,-5.003906 -4.6875,-5.140625 -4.8125,-5.273438 -4.894531,-5.394531 -4.9375,-5.5 -4.988281,-5.601562 -5,-5.695312 -4.96875,-5.78125 c 0.054688,-0.132812 0.164062,-0.28125 0.328125,-0.4375 z m 0,0"
                   id="path86" />
              </g>
            </g>
          </g>
          <g
             fill="#e7a0cc"
             fill-opacity="1"
             id="g92">
            <g
               transform="translate(21.587524,19.27844)"
               id="g91">
              <g
                 id="g90">
                <path
                   d="m 1.109375,-2.71875 2.84375,-1.546875 c 0.132813,-0.070313 0.238281,-0.125 0.3125,-0.15625 0.082031,-0.039063 0.179687,-0.0625 0.296875,-0.0625 0.21875,0 0.4375,0.199219 0.65625,0.59375 0.226562,0.429687 0.25,0.742187 0.0625,0.9375 -0.085938,0.09375 -0.234375,0.199219 -0.453125,0.3125 l -3.65625,2 c -0.429687,0.230469 -0.742187,0.246094 -0.9375,0.046875 -0.085937,-0.070312 -0.1875,-0.21875 -0.3125,-0.4375 l -2.78125,-5.109375 c -0.175781,-0.320313 -0.238281,-0.570313 -0.1875,-0.75 0.054687,-0.175781 0.242187,-0.351563 0.5625,-0.53125 L 1.15625,-9.40625 c 0.132812,-0.070312 0.238281,-0.125 0.3125,-0.15625 0.082031,-0.03125 0.1875,-0.046875 0.3125,-0.046875 0.207031,0 0.421875,0.199219 0.640625,0.59375 0.226563,0.429687 0.25,0.742187 0.0625,0.9375 -0.085937,0.09375 -0.234375,0.199219 -0.453125,0.3125 l -2.828125,1.546875 0.5,0.921875 1.828125,-1 c 0.132812,-0.070313 0.238281,-0.117187 0.3125,-0.140625 0.082031,-0.03125 0.1875,-0.046875 0.3125,-0.046875 0.21875,-0.00781 0.429688,0.183594 0.640625,0.578125 0.238281,0.429688 0.257813,0.746094 0.0625,0.953125 -0.09375,0.09375 -0.246094,0.199219 -0.453125,0.3125 l -1.8125,0.984375 z m 0,0"
                   id="path89" />
              </g>
            </g>
          </g>
          <g
             fill="#e7a0cc"
             fill-opacity="1"
             id="g95">
            <g
               transform="translate(28.908953,15.351755)"
               id="g94">
              <g
                 id="g93">
                <path
                   d="m 6.796875,-9.09375 c 0.082031,0.09375 0.132813,0.183594 0.15625,0.265625 0.03125,0.074219 0.066406,0.1875 0.109375,0.34375 l 1.25,5.6875 c 0.101562,0.46875 0.03125,0.777344 -0.21875,0.921875 -0.117188,0.074219 -0.273438,0.132812 -0.46875,0.171875 -0.199219,0.042969 -0.359375,0.0625 -0.484375,0.0625 -0.125,-0.00781 -0.226563,-0.03125 -0.296875,-0.0625 C 6.769531,-1.742188 6.707031,-1.800781 6.65625,-1.875 6.601562,-1.988281 6.550781,-2.164062 6.5,-2.40625 l -0.765625,-3.4375 c -0.125,0.25 -0.304687,0.648438 -0.53125,1.1875 -0.21875,0.53125 -0.367187,0.871094 -0.4375,1.015625 C 4.703125,-3.503906 4.65625,-3.410156 4.625,-3.359375 4.601562,-3.316406 4.535156,-3.238281 4.421875,-3.125 4.316406,-3.019531 4.1875,-2.953125 4.03125,-2.921875 3.875,-2.890625 3.722656,-2.894531 3.578125,-2.9375 3.441406,-2.976562 3.335938,-3.03125 3.265625,-3.09375 L 3.15625,-3.171875 C 2.988281,-3.316406 2.640625,-3.625 2.109375,-4.09375 1.578125,-4.5625 1.289062,-4.8125 1.25,-4.84375 l 0.765625,3.453125 c 0.03125,0.15625 0.050781,0.277344 0.0625,0.359375 0.00781,0.085938 0,0.171875 -0.03125,0.265625 -0.0625,0.210937 -0.3125,0.367187 -0.75,0.46875 C 0.878906,-0.210938 0.597656,-0.25 0.453125,-0.40625 c -0.074219,-0.070312 -0.125,-0.148438 -0.15625,-0.234375 -0.03125,-0.082031 -0.0625,-0.207031 -0.09375,-0.375 l -1.265625,-5.6875 c -0.03125,-0.15625 -0.046875,-0.269531 -0.046875,-0.34375 -0.00781,-0.082031 0,-0.179687 0.03125,-0.296875 0.0625,-0.207031 0.3125,-0.359375 0.75,-0.453125 0.1875,-0.039063 0.3476562,-0.050781 0.484375,-0.03125 0.144531,0.011719 0.242188,0.039063 0.296875,0.078125 l 0.078125,0.046875 3,2.53125 C 4.34375,-6.960938 4.894531,-8.148438 5.1875,-8.734375 5.257812,-8.941406 5.507812,-9.09375 5.9375,-9.1875 6.375,-9.28125 6.660156,-9.25 6.796875,-9.09375 Z m 0,0"
                   id="path92" />
              </g>
            </g>
          </g>
          <g
             fill="#e7a0cc"
             fill-opacity="1"
             id="g98">
            <g
               transform="translate(39.61853,13.556919)"
               id="g97">
              <g
                 id="g96" />
            </g>
          </g>
          <g
             fill="#e7a0cc"
             fill-opacity="1"
             id="g101">
            <g
               transform="translate(44.143717,13.580102)"
               id="g100">
              <g
                 id="g99">
                <path
                   d="m 2.609375,-1.375 3.171875,0.65625 c 0.144531,0.03125 0.257812,0.0625 0.34375,0.09375 0.082031,0.023438 0.171875,0.070312 0.265625,0.140625 0.164063,0.148437 0.203125,0.4375 0.109375,0.875 C 6.394531,0.867188 6.207031,1.125 5.9375,1.15625 5.8125,1.175781 5.628906,1.160156 5.390625,1.109375 L 1.3125,0.265625 C 0.832031,0.171875 0.578125,-0.015625 0.546875,-0.296875 0.523438,-0.410156 0.539062,-0.59375 0.59375,-0.84375 l 1.171875,-5.703125 c 0.070313,-0.351563 0.1875,-0.582031 0.34375,-0.6875 0.15625,-0.101563 0.414063,-0.113281 0.78125,-0.03125 l 4.0625,0.828125 c 0.144531,0.03125 0.257813,0.0625 0.34375,0.09375 0.082031,0.023438 0.171875,0.074219 0.265625,0.15625 0.164062,0.136719 0.203125,0.421875 0.109375,0.859375 -0.09375,0.480469 -0.28125,0.734375 -0.5625,0.765625 -0.125,0.023438 -0.308594,0.00781 -0.546875,-0.046875 l -3.15625,-0.65625 -0.203125,1.03125 2.03125,0.421875 c 0.15625,0.03125 0.269531,0.0625 0.34375,0.09375 0.082031,0.023438 0.164063,0.078125 0.25,0.171875 0.164063,0.125 0.207031,0.40625 0.125,0.84375 -0.105469,0.480469 -0.292969,0.734375 -0.5625,0.765625 -0.125,0.023438 -0.308594,0.00781 -0.546875,-0.046875 L 2.828125,-2.40625 Z m 0,0"
                   id="path98" />
              </g>
            </g>
          </g>
          <g
             fill="#e7a0cc"
             fill-opacity="1"
             id="g104">
            <g
               transform="translate(52.298073,15.432347)"
               id="g103">
              <g
                 id="g102">
                <path
                   d="M 4.640625,-6.296875 6.375,-5.4375 c 0.90625,0.449219 1.539062,1.179688 1.90625,2.1875 0.363281,1 0.304688,1.980469 -0.171875,2.9375 C 7.628906,0.632812 6.882812,1.28125 5.875,1.625 4.863281,1.976562 3.878906,1.914062 2.921875,1.4375 L 1.203125,0.578125 c -0.386719,-0.1875 -0.585937,-0.375 -0.59375,-0.5625 -0.011719,-0.1875 0.050781,-0.410156 0.1875,-0.671875 l 2.59375,-5.234375 c 0.070313,-0.144531 0.128906,-0.25 0.171875,-0.3125 0.050781,-0.0625 0.117188,-0.128906 0.203125,-0.203125 0.175781,-0.125 0.46875,-0.085938 0.875,0.109375 z m -0.859375,6.09375 c 0.445312,0.21875 0.9375,0.25 1.46875,0.09375 0.53125,-0.15625 0.921875,-0.484375 1.171875,-0.984375 0.25,-0.507812 0.28125,-1.023438 0.09375,-1.546875 C 6.335938,-3.160156 6.007812,-3.539062 5.53125,-3.78125 L 4.640625,-4.21875 2.875,-0.65625 Z m 0,0"
                   id="path101" />
              </g>
            </g>
          </g>
          <g
             fill="#e7a0cc"
             fill-opacity="1"
             id="g107">
            <g
               transform="translate(60.280615,19.62432)"
               id="g106">
              <g
                 id="g105">
                <path
                   d="m 9,-1.875 c 0.125,-0.039062 0.25,-0.03125 0.375,0.03125 0.132812,0.054688 0.273438,0.148438 0.421875,0.28125 0.144531,0.136719 0.25,0.257812 0.3125,0.359375 0.07031,0.105469 0.113281,0.199219 0.125,0.28125 0.01953,0.074219 0.0078,0.15625 -0.03125,0.25 -0.05469,0.125 -0.164063,0.277344 -0.328125,0.453125 L 7.765625,2.140625 C 7.140625,2.828125 6.363281,3.257812 5.4375,3.4375 4.988281,3.519531 4.523438,3.492188 4.046875,3.359375 3.578125,3.222656 3.144531,2.976562 2.75,2.625 2.351562,2.269531 2.0625,1.863281 1.875,1.40625 1.695312,0.945312 1.628906,0.488281 1.671875,0.03125 1.742188,-0.894531 2.09375,-1.707031 2.71875,-2.40625 L 4.828125,-4.75 c 0.125,-0.132812 0.21875,-0.226562 0.28125,-0.28125 0.0625,-0.050781 0.144531,-0.09375 0.25,-0.125 0.113281,-0.039062 0.226563,-0.035156 0.34375,0.015625 0.125,0.054687 0.269531,0.15625 0.4375,0.3125 0.164063,0.148437 0.285156,0.28125 0.359375,0.40625 0.082031,0.125 0.101562,0.242187 0.0625,0.34375 C 6.519531,-3.898438 6.40625,-3.707031 6.21875,-3.5 L 4.109375,-1.15625 C 3.828125,-0.832031 3.632812,-0.457031 3.53125,-0.03125 3.488281,0.175781 3.503906,0.394531 3.578125,0.625 3.648438,0.851562 3.796875,1.066406 4.015625,1.265625 4.398438,1.597656 4.8125,1.707031 5.25,1.59375 5.6875,1.476562 6.070312,1.234375 6.40625,0.859375 l 2.140625,-2.375 C 8.734375,-1.722656 8.882812,-1.84375 9,-1.875 Z m 0,0"
                   id="path104" />
              </g>
            </g>
          </g>
          <g
             fill="#e7a0cc"
             fill-opacity="1"
             id="g110">
            <g
               transform="translate(66.996978,25.988006)"
               id="g109">
              <g
                 id="g108">
                <path
                   d="M 4.515625,3.3125 4.75,3.390625 c 0.238281,0.125 0.382812,0.226563 0.4375,0.3125 0.125,0.175781 0.09375,0.472656 -0.09375,0.890625 -0.125,0.269531 -0.25,0.441406 -0.375,0.515625 C 4.59375,5.191406 4.460938,5.222656 4.328125,5.203125 4.191406,5.179688 4.054688,5.132812 3.921875,5.0625 3.796875,5 3.671875,4.9375 3.546875,4.875 3.429688,4.8125 3.226562,4.660156 2.9375,4.421875 2.644531,4.191406 2.40625,3.9375 2.21875,3.65625 2.039062,3.375 1.894531,3.066406 1.78125,2.734375 1.675781,2.410156 1.613281,2.039062 1.59375,1.625 1.582031,1.207031 1.617188,0.796875 1.703125,0.390625 c 0.09375,-0.40625 0.285156,-0.8125 0.578125,-1.21875 0.289062,-0.40625 0.664062,-0.753906 1.125,-1.046875 0.457031,-0.300781 0.921875,-0.492188 1.390625,-0.578125 0.46875,-0.082031 0.898437,-0.082031 1.296875,0 0.40625,0.074219 0.789062,0.210937 1.15625,0.40625 0.6875,0.375 1.21875,0.855469 1.59375,1.4375 0.175781,0.273437 0.3125,0.5742188 0.40625,0.90625 0.101562,0.34375 0.160156,0.613281 0.171875,0.8125 v 0.3125 C 9.429688,1.566406 9.4375,1.679688 9.4375,1.765625 9.40625,1.992188 9.3125,2.15625 9.15625,2.25 9,2.351562 8.796875,2.398438 8.546875,2.390625 8.085938,2.359375 7.800781,2.253906 7.6875,2.078125 7.613281,1.972656 7.570312,1.785156 7.5625,1.515625 7.613281,1.140625 7.507812,0.742188 7.25,0.328125 7,-0.0546875 6.625,-0.347656 6.125,-0.546875 5.875,-0.628906 5.59375,-0.65625 5.28125,-0.625 4.976562,-0.601562 4.675781,-0.492188 4.375,-0.296875 c -0.292969,0.1875 -0.523438,0.414063 -0.6875,0.6875 -0.15625,0.269531 -0.25,0.539063 -0.28125,0.8125 -0.023438,0.519531 0.097656,0.976563 0.359375,1.375 0.113281,0.1875 0.242187,0.34375 0.390625,0.46875 C 4.3125,3.179688 4.429688,3.269531 4.515625,3.3125 Z m 0,0"
                   id="path107" />
              </g>
            </g>
          </g>
          <g
             fill="#e7a0cc"
             fill-opacity="1"
             id="g113">
            <g
               transform="translate(71.603964,33.430928)"
               id="g112">
              <g
                 id="g111">
                <path
                   d="M 8.28125,2.53125 3.515625,6.96875 C 3.316406,7.144531 3.160156,7.253906 3.046875,7.296875 2.804688,7.367188 2.53125,7.242188 2.21875,6.921875 2.03125,6.722656 1.914062,6.554688 1.875,6.421875 1.832031,6.296875 1.828125,6.179688 1.859375,6.078125 1.898438,5.984375 1.945312,5.90625 2,5.84375 2.0625,5.78125 2.148438,5.703125 2.265625,5.609375 l 0.90625,-0.875 L 2.3125,1.96875 1.078125,1.78125 C 0.921875,1.75 0.804688,1.722656 0.734375,1.703125 0.671875,1.691406 0.59375,1.65625 0.5,1.59375 0.40625,1.53125 0.335938,1.429688 0.296875,1.296875 c -0.042969,-0.125 -0.042969,-0.320313 0,-0.578125 0.070313,-0.449219 0.226563,-0.7109375 0.46875,-0.78125 0.113281,-0.039062 0.304687,-0.039062 0.578125,0 l 6.4375,0.984375 C 7.957031,0.941406 8.113281,1.007812 8.25,1.125 8.394531,1.25 8.492188,1.394531 8.546875,1.5625 8.660156,1.925781 8.570312,2.25 8.28125,2.53125 Z M 5.609375,2.484375 4.03125,2.234375 4.4375,3.578125 Z m 0,0"
                   id="path110" />
              </g>
            </g>
          </g>
          <g
             fill="#e7a0cc"
             fill-opacity="1"
             id="g116">
            <g
               transform="translate(74.211455,42.696657)"
               id="g115">
              <g
                 id="g114">
                <path
                   d="m 7.71875,0.765625 0.125,5.84375 c 0,0.21875 -0.027344,0.378906 -0.078125,0.484375 C 7.722656,7.195312 7.644531,7.269531 7.53125,7.3125 7.425781,7.351562 7.28125,7.375 7.09375,7.375 6.914062,7.375 6.769531,7.359375 6.65625,7.328125 6.550781,7.296875 6.472656,7.238281 6.421875,7.15625 6.359375,7.03125 6.328125,6.851562 6.328125,6.625 L 6.28125,4.625 1,4.734375 C 0.832031,4.734375 0.710938,4.726562 0.640625,4.71875 0.566406,4.707031 0.476562,4.675781 0.375,4.625 0.269531,4.582031 0.191406,4.492188 0.140625,4.359375 0.0976562,4.222656 0.078125,4.046875 0.078125,3.828125 0.078125,3.609375 0.09375,3.4375 0.125,3.3125 0.164062,3.1875 0.238281,3.09375 0.34375,3.03125 0.445312,2.976562 0.535156,2.941406 0.609375,2.921875 0.691406,2.910156 0.8125,2.90625 0.96875,2.90625 L 6.25,2.796875 6.203125,0.78125 c 0,-0.21875 0.019531,-0.382812 0.0625,-0.484375 C 6.316406,0.191406 6.394531,0.117188 6.5,0.078125 c 0.113281,-0.0429688 0.257812,-0.0625 0.4375,-0.0625 0.1875,0 0.332031,0.015625 0.4375,0.046875 0.113281,0.03125 0.195312,0.085938 0.25,0.171875 0.0625,0.125 0.09375,0.300781 0.09375,0.53125 z m 0,0"
                   id="path113" />
              </g>
            </g>
          </g>
          <g
             fill="#e7a0cc"
             fill-opacity="1"
             id="g119">
            <g
               transform="translate(73.958066,52.16122)"
               id="g118">
              <g
                 id="g117">
                <path
                   d="m 6.5625,1.6875 c 0.164062,0.03125 0.285156,0.054688 0.359375,0.078125 0.082031,0.019531 0.171875,0.0625 0.265625,0.125 0.164062,0.144531 0.207031,0.4375 0.125,0.875 -0.09375,0.488281 -0.273438,0.75 -0.53125,0.78125 C 6.644531,3.554688 6.457031,3.539062 6.21875,3.5 L 0.484375,2.40625 C 0.316406,2.375 0.195312,2.34375 0.125,2.3125 0.0507812,2.289062 -0.03125,2.242188 -0.125,2.171875 -0.289062,2.046875 -0.332031,1.757812 -0.25,1.3125 -0.15625,0.832031 0.03125,0.578125 0.3125,0.546875 0.414062,0.535156 0.59375,0.550781 0.84375,0.59375 Z m 0,0"
                   id="path116" />
              </g>
            </g>
          </g>
          <g
             fill="#e7a0cc"
             fill-opacity="1"
             id="g122">
            <g
               transform="translate(73.213845,56.615694)"
               id="g121">
              <g
                 id="g120">
                <path
                   d="M 5.59375,6.75 C 5.1875,7.71875 4.488281,8.40625 3.5,8.8125 2.519531,9.21875 1.519531,9.203125 0.5,8.765625 c -1.019531,-0.4375 -1.742188,-1.148437 -2.171875,-2.125 -0.4375,-0.96875 -0.445313,-1.945313 -0.03125,-2.921875 0.40625,-0.980469 1.109375,-1.664062 2.109375,-2.046875 1,-0.375 1.988281,-0.355469 2.96875,0.0625 0.53125,0.21875 0.988281,0.519531 1.375,0.90625 C 5.144531,3.023438 5.429688,3.445312 5.609375,3.90625 5.785156,4.363281 5.875,4.84375 5.875,5.34375 5.875,5.84375 5.78125,6.3125 5.59375,6.75 Z M 2.6875,3.4375 C 2.113281,3.195312 1.570312,3.1875 1.0625,3.40625 0.550781,3.625 0.195312,3.960938 0,4.421875 -0.1875,4.878906 -0.1875,5.363281 0,5.875 c 0.1875,0.519531 0.578125,0.90625 1.171875,1.15625 0.59375,0.25 1.144531,0.265625 1.65625,0.046875 C 3.335938,6.867188 3.6875,6.53125 3.875,6.0625 4.070312,5.601562 4.066406,5.113281 3.859375,4.59375 3.660156,4.070312 3.269531,3.6875 2.6875,3.4375 Z m 0,0"
                   id="path119" />
              </g>
            </g>
          </g>
          <g
             fill="#e7a0cc"
             fill-opacity="1"
             id="g125">
            <g
               transform="translate(69.164157,65.466776)"
               id="g124">
              <g
                 id="g123">
                <path
                   d="M 2.328125,8.828125 C 2.390625,8.960938 2.394531,9.09375 2.34375,9.21875 2.289062,9.351562 2.203125,9.492188 2.078125,9.640625 1.953125,9.796875 1.835938,9.910156 1.734375,9.984375 1.628906,10.054688 1.539062,10.101562 1.46875,10.125 1.394531,10.144531 1.304688,10.128906 1.203125,10.078125 1.085938,10.046875 0.9375,9.953125 0.75,9.796875 L -3.78125,6.125 C -3.914062,6.019531 -4.007812,5.9375 -4.0625,5.875 -4.113281,5.820312 -4.160156,5.742188 -4.203125,5.640625 -4.285156,5.441406 -4.1875,5.164062 -3.90625,4.8125 -3.738281,4.601562 -3.601562,4.472656 -3.5,4.421875 -3.40625,4.367188 -3.300781,4.34375 -3.1875,4.34375 -0.570312,4.4375 1.148438,4.492188 1.984375,4.515625 l -2.6875,-2.171875 c -0.132813,-0.105469 -0.226563,-0.1875 -0.28125,-0.25 -0.050781,-0.054688 -0.101563,-0.136719 -0.15625,-0.25 C -1.222656,1.644531 -1.125,1.375 -0.84375,1.03125 c 0.273438,-0.335938 0.515625,-0.484375 0.734375,-0.453125 0.11328125,0.039063 0.203125,0.082031 0.265625,0.125 0.070312,0.039063 0.175781,0.113281 0.3125,0.21875 l 4.546875,3.6875 c 0.195313,0.164063 0.320313,0.3125 0.375,0.4375 C 5.453125,5.179688 5.457031,5.3125 5.40625,5.4375 5.351562,5.5625 5.257812,5.707031 5.125,5.875 4.988281,6.039062 4.867188,6.15625 4.765625,6.21875 c -0.09375,0.070312 -0.179687,0.113281 -0.25,0.125 -0.042969,0.00781 -0.167969,0.015625 -0.375,0.015625 -2.492187,-0.125 -4.13671875,-0.195313 -4.9375,-0.203125 l 2.75,2.234375 c 0.195313,0.164063 0.320313,0.3125 0.375,0.4375 z m 0,0"
                   id="path122" />
              </g>
            </g>
          </g>
        </g>
      </g>
      <g
         clip-path="url(#fa6fca9304)"
         id="g130">
        <g
           clip-path="url(#63fe4db5b0)"
           id="g129">
          <g
             clip-path="url(#17e4ba2423)"
             id="g128">
            <path
               fill="#ffffff"
               d="m 344.69922,54.714844 c 0.52344,0.28125 0.99609,0.609375 1.37109,1.136718 0.37891,0.523438 0.5586,1.105469 0.63281,1.664063 l 1.42969,-0.347656 c -0.008,-0.75 -0.32422,-1.601563 -0.77734,-2.234375 -0.45703,-0.632813 -1.1211,-1.183594 -1.8711,-1.460938 z m 0,0"
               fill-opacity="1"
               fill-rule="nonzero"
               id="path127" />
          </g>
        </g>
      </g>
      <g
         clip-path="url(#9a095ae75a)"
         id="g137">
        <g
           clip-path="url(#d838850109)"
           id="g136">
          <g
             transform="translate(344,36)"
             id="g135">
            <g
               clip-path="url(#1ba368c8cb)"
               id="g134">
              <g
                 clip-path="url(#a1fac3495b)"
                 id="g133">
                <g
                   clip-path="url(#d1c2a53d21)"
                   id="g132">
                  <g
                     clip-path="url(#66e4c8cdf3)"
                     id="g131">
                    <path
                       fill="#ffffff"
                       d="M 1.070312,3.964844 C 1.621094,3.742188 2.125,3.460938 2.554688,2.980469 2.984375,2.496094 3.222656,1.9375 3.359375,1.390625 L 4.742188,1.882812 C 4.65625,2.632812 4.25,3.445312 3.734375,4.027344 3.214844,4.609375 2.496094,5.085938 1.722656,5.28125 Z m 0,0"
                       fill-opacity="1"
                       fill-rule="nonzero"
                       id="path130" />
                  </g>
                </g>
              </g>
            </g>
          </g>
        </g>
      </g>
    </g>
  </g>
</svg>
