<?xml version="1.0" encoding="UTF-8" standalone="no"?>
<svg
   width="470.63815"
   zoomAndPan="magnify"
   viewBox="0 0 352.97861 324.11988"
   height="432.15985"
   preserveAspectRatio="xMidYMid"
   version="1.0"
   id="svg46"
   sodipodi:docname="Your paragraph text-4.svg"
   xmlns:inkscape="http://www.inkscape.org/namespaces/inkscape"
   xmlns:sodipodi="http://sodipodi.sourceforge.net/DTD/sodipodi-0.dtd"
   xmlns="http://www.w3.org/2000/svg"
   xmlns:svg="http://www.w3.org/2000/svg">
  <sodipodi:namedview
     id="namedview46"
     pagecolor="#ffffff"
     bordercolor="#000000"
     borderopacity="0.25"
     inkscape:showpageshadow="2"
     inkscape:pageopacity="0.0"
     inkscape:pagecheckerboard="0"
     inkscape:deskcolor="#d1d1d1">
    <inkscape:page
       x="0"
       y="0"
       width="352.97861"
       height="324.11987"
       id="page2"
       margin="0"
       bleed="0" />
  </sodipodi:namedview>
  <defs
     id="defs1">
    <clipPath
       id="d466afbecc">
      <path
         d="M 43.199219,76.75 H 313.19922 v 270 H 43.199219 Z m 0,0"
         clip-rule="nonzero"
         id="path1" />
    </clipPath>
    <clipPath
       id="d282c7f4ba">
      <rect
         x="0"
         width="375"
         y="0"
         height="354"
         id="rect1" />
    </clipPath>
  </defs>
  <g
     clip-path="url(#d466afbecc)"
     id="g2"
     transform="translate(-11.799002,-22.571543)">
    <path
       id="path2"
       d="m 160.34002,76.750253 c -4.18359,0 -7.70753,3.128418 -8.19581,7.284668 l -2.95312,24.921389 c -8.00782,2.25391 -15.80078,5.4458 -23.20312,9.60205 l -19.70215,-15.52735 c -3.28516,-2.59375 -7.992679,-2.3164 -10.94971,0.64454 l -25.211425,25.21142 c -2.957031,2.95703 -3.238282,7.66308 -0.644532,10.94824 l 15.527344,19.69922 c -4.152343,7.40625 -7.351562,15.1997 -9.597656,23.20752 l -24.925781,2.94873 c -4.15625,0.49218 -7.284668,4.01661 -7.284668,8.2002 v 35.65136 c 0,4.1875 3.128418,7.71095 7.284668,8.20313 l 24.925781,2.95019 c 2.246094,8.00391 5.445313,15.79981 9.597656,23.20606 l -15.527344,19.69922 c -2.59375,3.28516 -2.312499,7.99267 0.644532,10.9497 l 25.211425,25.21143 c 2.957031,2.96094 7.66455,3.23828 10.94971,0.64453 l 19.70215,-15.52734 c 7.40234,4.15625 15.1953,7.34667 23.20312,9.60058 l 2.95312,24.92285 c 0.48828,4.15625 4.01222,7.28907 8.19581,7.28907 h 35.06689 c 4.10937,0 7.59278,-3.02833 8.1709,-7.09864 l 3.56689,-25.11328 c 8.00391,-2.25391 15.80518,-5.44433 23.20752,-9.60058 l 19.69922,15.52734 c 3.28906,2.59375 7.99121,2.31641 10.94824,-0.64453 l 25.21143,-25.21143 c 2.96093,-2.95703 3.23877,-7.66454 0.64892,-10.9497 l -15.52734,-19.69922 c 2.1053,-3.75508 3.96333,-7.60952 5.57812,-11.54151 L 229.7531,232.6858 c -8.28027,20.35341 -28.25559,34.70068 -51.58447,34.70068 -30.74219,0 -55.66406,-24.92237 -55.66406,-55.66846 0,-30.74609 24.92187,-55.66699 55.66406,-55.66699 23.28737,0 43.23346,14.29645 51.54052,34.59229 l 47.57081,-18.65772 c -1.69856,-4.2467 -3.67994,-8.40709 -5.94727,-12.45117 l 15.52734,-19.69922 c 2.58985,-3.28516 2.31201,-7.99121 -0.64892,-10.94824 l -25.21143,-25.21142 c -2.95703,-2.96094 -7.65918,-3.23829 -10.94824,-0.64454 l -19.69922,15.52735 c -7.40234,-4.15625 -15.20361,-7.34814 -23.20752,-9.60205 l -2.94873,-24.921389 c -0.49219,-4.15625 -4.01562,-7.284668 -8.20312,-7.284668 z"
       style="fill:#e7a0cc;fill-opacity:1" />
  </g>
  <g
     id="g46"
     transform="translate(-11.799002,-22.571543)">
    <g
       clip-path="url(#d282c7f4ba)"
       id="g45">
      <g
         fill="#e7a0cc"
         fill-opacity="1"
         id="g5">
        <g
           transform="translate(37.189636,141.33709)"
           id="g4">
          <g
             id="g3">
            <path
               d="m -2.90625,-4.6875 c -1.3125,0.167969 -2.3125,0.039062 -3,-0.390625 -0.695312,-0.4375 -1.257812,-1.597656 -1.6875,-3.484375 -0.21875,-1.082031 -0.085938,-2.003906 0.390625,-2.765625 0.46875,-0.757813 1.804687,-1.398437 4,-1.921875 0.710937,-0.08203 1.492187,-0.347656 2.34375,-0.796875 0.85546875,-0.445313 1.46875,-0.972656 1.84375,-1.578125 1.570313,-2.53125 1.328125,-4.4375 -0.734375,-5.71875 -0.625,-0.382812 -1.363281,-0.363281 -2.21875,0.0625 -0.863281,0.429688 -1.710938,1.101562 -2.546875,2.015625 -0.832031,0.917969 -1.828125,1.84375 -2.984375,2.78125 -1.164062,0.929687 -2.351562,1.734375 -3.5625,2.421875 -1.207031,0.679688 -2.644531,0.980469 -4.3125,0.90625 -1.675781,-0.07031 -3.390625,-0.644531 -5.140625,-1.71875 -2.394531,-1.488281 -3.929687,-3.679688 -4.609375,-6.578125 -0.675781,-2.894531 -0.0625,-5.878906 1.84375,-8.953125 1.023438,-1.632812 2.164062,-2.992188 3.421875,-4.078125 1.261719,-1.082031 2.265625,-1.75 3.015625,-2 l 1.40625,-0.546875 c 1.324219,-0.332031 2.257812,-0.332031 2.796875,0 0.542969,0.335938 1.085937,1.125 1.625,2.375 0.792969,1.761719 0.886719,3.132812 0.28125,4.109375 -0.363281,0.585937 -1.078125,1.125 -2.140625,1.625 -0.101562,0.04297 -0.332031,0.109375 -0.6875,0.203125 -0.363281,0.09375 -0.671875,0.199219 -0.921875,0.3125 -0.71875,0.355469 -1.347656,0.976562 -1.890625,1.859375 -0.550781,0.875 -0.796875,1.742187 -0.734375,2.59375 0.05469,0.84375 0.453125,1.5 1.203125,1.96875 0.742188,0.46875 1.558594,0.5 2.453125,0.09375 0.898437,-0.40625 1.75,-1.070313 2.5625,-2 0.804687,-0.9375 1.757813,-1.914063 2.859375,-2.9375 1.09375,-1.019531 2.210938,-1.890625 3.34375,-2.609375 1.136719,-0.726562 2.523438,-1.0625 4.15625,-1 1.632812,0.05469 3.335938,0.632812 5.109375,1.734375 1.769531,1.09375 3.109375,2.417969 4.015625,3.96875 0.914062,1.542969 1.390625,3.109375 1.421875,4.703125 0.0625,3.09375 -0.683594,5.898438 -2.234375,8.40625 -0.792969,1.273438 -1.699219,2.386719 -2.71875,3.34375 -1.023438,0.949219 -1.984375,1.632812 -2.890625,2.046875 -1.773437,0.898437 -3.234375,1.382813 -4.390625,1.453125 z m 0,0"
               id="path3" />
          </g>
        </g>
      </g>
      <g
         fill="#e7a0cc"
         fill-opacity="1"
         id="g8">
        <g
           transform="translate(56.456061,111.31311)"
           id="g7">
          <g
             id="g6">
            <path
               d="m -21.265625,-28.46875 19.34375,-18.421875 c 0.742187,-0.707031 1.371094,-1.140625 1.890625,-1.296875 0.507812,-0.164062 1,-0.113281 1.46875,0.15625 0.46875,0.261719 0.988281,0.695312 1.5625,1.296875 0.570312,0.605469 0.972656,1.140625 1.203125,1.609375 0.226563,0.46875 0.273437,0.902344 0.140625,1.296875 -0.242188,0.617187 -0.742188,1.289063 -1.5,2.015625 l -6.65625,6.328125 16.671875,17.5 c 0.507813,0.542969 0.867187,0.960937 1.078125,1.25 0.21875,0.28125 0.398438,0.671875 0.546875,1.171875 0.144531,0.5 0.0625,1.03125 -0.25,1.59375 -0.304687,0.5625 -0.8125,1.1875 -1.53125,1.875 -0.71875,0.6875 -1.359375,1.167969 -1.921875,1.4375 -0.5625,0.261719 -1.09375,0.308594 -1.59375,0.140625 C 8.695312,-10.679688 8.304688,-10.882812 8.015625,-11.125 7.722656,-11.363281 7.320312,-11.75 6.8125,-12.28125 L -9.828125,-29.75 -16.5,-23.390625 c -0.75,0.710937 -1.378906,1.148437 -1.890625,1.3125 -0.507813,0.15625 -1,0.105469 -1.46875,-0.15625 -0.46875,-0.257813 -0.988281,-0.691406 -1.5625,-1.296875 -0.570313,-0.601562 -0.972656,-1.140625 -1.203125,-1.609375 -0.226562,-0.476563 -0.265625,-0.921875 -0.109375,-1.328125 0.210937,-0.601562 0.699219,-1.269531 1.46875,-2 z m 0,0"
               id="path5" />
          </g>
        </g>
      </g>
      <g
         fill="#e7a0cc"
         fill-opacity="1"
         id="g11">
        <g
           transform="translate(88.174594,82.835917)"
           id="g10">
          <g
             id="g9">
            <path
               d="m 5.09375,-12.453125 13,-7.09375 c 0.644531,-0.351563 1.140625,-0.597656 1.484375,-0.734375 0.34375,-0.132812 0.785156,-0.207031 1.328125,-0.21875 0.976562,-0.01953 1.957031,0.871094 2.9375,2.671875 1.082031,1.980469 1.191406,3.421875 0.328125,4.328125 -0.398437,0.429688 -1.085937,0.90625 -2.0625,1.4375 L 5.40625,-2.953125 C 3.425781,-1.867188 1.976562,-1.773438 1.0625,-2.671875 0.65625,-3.023438 0.179688,-3.695312 -0.359375,-4.6875 L -13.15625,-28.140625 c -0.78125,-1.4375 -1.046875,-2.5625 -0.796875,-3.375 0.25,-0.8125 1.121094,-1.625 2.609375,-2.4375 l 16.625,-9.0625 c 0.644531,-0.351563 1.140625,-0.59375 1.484375,-0.71875 0.351563,-0.132813 0.804687,-0.207031 1.359375,-0.21875 0.96875,-0.01953 1.941406,0.871094 2.921875,2.671875 1.070313,1.96875 1.179687,3.40625 0.328125,4.3125 -0.398438,0.4375 -1.085938,0.921875 -2.0625,1.453125 l -12.953125,7.078125 2.328125,4.25 8.359375,-4.5625 c 0.644531,-0.351562 1.140625,-0.59375 1.484375,-0.71875 0.34375,-0.132812 0.785156,-0.207031 1.328125,-0.21875 0.96875,-0.01953 1.945313,0.867188 2.9375,2.65625 1.070313,1.980469 1.160156,3.429688 0.265625,4.34375 -0.367188,0.429688 -1.042969,0.914062 -2.03125,1.453125 l -8.265625,4.515625 z m 0,0"
               id="path8" />
          </g>
        </g>
      </g>
      <g
         fill="#e7a0cc"
         fill-opacity="1"
         id="g14">
        <g
           transform="translate(121.66182,64.875819)"
           id="g13">
          <g
             id="g12">
            <path
               d="m 31.09375,-41.59375 c 0.375,0.417969 0.625,0.808594 0.75,1.171875 0.125,0.355469 0.269531,0.898437 0.4375,1.625 l 5.75,26.03125 c 0.476562,2.167969 0.160156,3.574219 -0.953125,4.21875 -0.542969,0.3125 -1.273437,0.574219 -2.1875,0.78125 -0.90625,0.199219 -1.640625,0.277344 -2.203125,0.234375 -0.554688,-0.039062 -1,-0.140625 -1.34375,-0.296875 -0.335938,-0.15625 -0.621094,-0.414063 -0.859375,-0.78125 C 30.210938,-9.109375 29.957031,-9.90625 29.71875,-11 L 26.25,-26.71875 c -0.585938,1.148438 -1.398438,2.945312 -2.4375,5.390625 -1.03125,2.4375 -1.695312,3.96875 -1.984375,4.59375 -0.292969,0.617187 -0.492187,1.042969 -0.59375,1.28125 -0.105469,0.230469 -0.421875,0.59375 -0.953125,1.09375 -0.53125,0.5 -1.152344,0.828125 -1.859375,0.984375 -0.710937,0.15625 -1.386719,0.136719 -2.03125,-0.0625 -0.648437,-0.207031 -1.132813,-0.441406 -1.453125,-0.703125 l -0.5,-0.4375 c -0.792969,-0.625 -2.390625,-2.007813 -4.796875,-4.15625 -2.40625,-2.15625 -3.714844,-3.300781 -3.921875,-3.4375 L 9.203125,-6.375 C 9.367188,-5.644531 9.46875,-5.097656 9.5,-4.734375 9.539062,-4.367188 9.484375,-3.9375 9.328125,-3.4375 9.035156,-2.488281 7.910156,-1.796875 5.953125,-1.359375 4.035156,-0.941406 2.75,-1.101562 2.09375,-1.84375 1.75,-2.226562 1.507812,-2.601562 1.375,-2.96875 1.25,-3.332031 1.101562,-3.890625 0.9375,-4.640625 L -4.828125,-30.6875 c -0.15625,-0.71875 -0.25,-1.265625 -0.28125,-1.640625 -0.03125,-0.375 0.027344,-0.820313 0.171875,-1.34375 0.28125,-0.914063 1.414062,-1.59375 3.390625,-2.03125 0.84375,-0.1875 1.59375,-0.242187 2.25,-0.171875 0.65625,0.0625 1.097656,0.1875 1.328125,0.375 l 0.359375,0.203125 13.734375,11.65625 c 3.757812,-8.21875 6.28125,-13.65625 7.5625,-16.3125 0.351562,-0.96875 1.519531,-1.671875 3.5,-2.109375 1.988281,-0.4375 3.289062,-0.28125 3.90625,0.46875 z m 0,0"
               id="path11" />
          </g>
        </g>
      </g>
      <g
         fill="#e7a0cc"
         fill-opacity="1"
         id="g17">
        <g
           transform="translate(170.64595,56.6665)"
           id="g16">
          <g
             id="g15" />
        </g>
      </g>
      <g
         fill="#e7a0cc"
         fill-opacity="1"
         id="g20">
        <g
           transform="translate(191.34354,56.772533)"
           id="g19">
          <g
             id="g18">
            <path
               d="m 11.921875,-6.234375 14.515625,3 c 0.71875,0.148437 1.25,0.28125 1.59375,0.40625 0.351562,0.117187 0.742188,0.339844 1.171875,0.671875 0.75,0.625 0.921875,1.945312 0.515625,3.953125 -0.460938,2.195313 -1.304688,3.363281 -2.53125,3.5 -0.585938,0.082031 -1.421875,0.00781 -2.515625,-0.21875 L 6.03125,1.234375 c -2.210938,-0.449219 -3.375,-1.3125 -3.5,-2.59375 -0.09375,-0.53125 -0.027344,-1.34375 0.203125,-2.4375 L 8.125,-29.96875 c 0.332031,-1.601562 0.859375,-2.632812 1.578125,-3.09375 0.71875,-0.46875 1.910156,-0.53125 3.578125,-0.1875 l 18.546875,3.828125 c 0.71875,0.148437 1.25,0.28125 1.59375,0.40625 0.351563,0.125 0.742187,0.359375 1.171875,0.703125 0.75,0.617188 0.914062,1.929688 0.5,3.9375 -0.449219,2.1875 -1.289062,3.355469 -2.515625,3.5 -0.585937,0.08594 -1.421875,0.01172 -2.515625,-0.21875 l -14.46875,-2.984375 -0.984375,4.75 9.34375,1.921875 c 0.707031,0.15625 1.238281,0.296875 1.59375,0.421875 0.351563,0.125 0.738281,0.355469 1.15625,0.6875 0.757813,0.617187 0.929687,1.929687 0.515625,3.9375 -0.460938,2.210937 -1.320312,3.371094 -2.578125,3.484375 -0.574219,0.09375 -1.414063,0.027344 -2.515625,-0.203125 l -9.234375,-1.90625 z m 0,0"
               id="path17" />
          </g>
        </g>
      </g>
      <g
         fill="#e7a0cc"
         fill-opacity="1"
         id="g23">
        <g
           transform="translate(228.64032,65.244443)"
           id="g22">
          <g
             id="g21">
            <path
               d="m 21.25,-28.828125 7.9375,3.984375 c 4.164062,2.0625 7.082031,5.382812 8.75,9.953125 1.664062,4.5625 1.410156,9.03125 -0.765625,13.40625 C 35.003906,2.890625 31.597656,5.875 26.953125,7.46875 22.304688,9.070312 17.789062,8.785156 13.40625,6.609375 L 5.53125,2.6875 C 3.769531,1.820312 2.859375,0.921875 2.796875,-0.015625 c -0.054687,-0.769531 0.226563,-1.769531 0.84375,-3 l 11.890625,-23.9375 c 0.34375,-0.6875 0.613281,-1.175781 0.8125,-1.46875 0.195312,-0.300781 0.519531,-0.609375 0.96875,-0.921875 0.78125,-0.570312 2.09375,-0.398438 3.9375,0.515625 z m -3.921875,27.875 c 2.0625,1.0195312 4.304687,1.179687 6.734375,0.484375 2.425781,-0.707031 4.21875,-2.222656 5.375,-4.546875 1.15625,-2.320313 1.3125,-4.671875 0.46875,-7.046875 -0.84375,-2.375 -2.359375,-4.101562 -4.546875,-5.1875 L 21.21875,-19.296875 13.140625,-3.03125 Z m 0,0"
               id="path20" />
          </g>
        </g>
      </g>
      <g
         fill="#e7a0cc"
         fill-opacity="1"
         id="g26">
        <g
           transform="translate(265.15144,84.417924)"
           id="g25">
          <g
             id="g24">
            <path
               d="m 41.21875,-8.578125 c 0.582031,-0.175781 1.164062,-0.128906 1.75,0.140625 0.582031,0.261719 1.210938,0.699219 1.890625,1.3125 0.675781,0.605469 1.160156,1.152344 1.453125,1.640625 0.300781,0.480469 0.484375,0.902344 0.546875,1.265625 0.07031,0.355469 0.0078,0.742188 -0.1875,1.15625 -0.230469,0.523438 -0.71875,1.203125 -1.46875,2.046875 l -9.6875,10.796875 c -2.835937,3.144531 -6.375,5.128906 -10.625,5.953125 -2.054687,0.363281 -4.171875,0.25 -6.359375,-0.34375 -2.179688,-0.59375 -4.179688,-1.710937 -6,-3.34375 C 10.71875,10.410156 9.40625,8.539062 8.59375,6.4375 7.789062,4.332031 7.484375,2.238281 7.671875,0.15625 c 0.332031,-4.257812 1.9375,-7.984375 4.8125,-11.171875 l 9.65625,-10.765625 c 0.519531,-0.582031 0.914063,-0.992188 1.1875,-1.234375 0.28125,-0.238281 0.675781,-0.453125 1.1875,-0.640625 0.507813,-0.1875 1.054687,-0.144531 1.640625,0.125 0.582031,0.261719 1.253906,0.734375 2.015625,1.421875 0.757813,0.6875 1.300781,1.308594 1.625,1.859375 0.320313,0.542969 0.414063,1.0625 0.28125,1.5625 -0.21875,0.8125 -0.757813,1.699219 -1.609375,2.65625 l -9.625,10.734375 c -1.304688,1.449219 -2.1875,3.152344 -2.65625,5.109375 -0.242188,0.976562 -0.183594,1.992188 0.171875,3.046875 0.351563,1.050781 1.019531,2.015625 2,2.890625 1.726563,1.5625 3.597656,2.082031 5.609375,1.5625 C 25.988281,6.800781 27.757812,5.695312 29.28125,4 l 9.8125,-10.9375 c 0.832031,-0.925781 1.539062,-1.472656 2.125,-1.640625 z m 0,0"
               id="path23" />
          </g>
        </g>
      </g>
      <g
         fill="#e7a0cc"
         fill-opacity="1"
         id="g29">
        <g
           transform="translate(295.87108,113.52453)"
           id="g28">
          <g
             id="g27">
            <path
               d="M 20.734375,15.125 21.71875,15.5 c 1.132812,0.570312 1.820312,1.046875 2.0625,1.421875 0.53125,0.832031 0.351562,2.222656 -0.53125,4.171875 -0.5625,1.207031 -1.125,1.992188 -1.6875,2.359375 C 21,23.816406 20.410156,23.9375 19.796875,23.8125 c -0.605469,-0.125 -1.214844,-0.335938 -1.828125,-0.625 -0.617188,-0.292969 -1.199219,-0.578125 -1.75,-0.859375 -0.554688,-0.273437 -1.492188,-0.953125 -2.8125,-2.046875 -1.3125,-1.085938 -2.382812,-2.265625 -3.203125,-3.546875 -0.824219,-1.28125 -1.492187,-2.6875 -2,-4.21875 C 7.703125,10.992188 7.40625,9.28125 7.3125,7.375 7.21875,5.476562 7.382812,3.609375 7.8125,1.765625 8.238281,-0.0664062 9.117188,-1.914062 10.453125,-3.78125 11.785156,-5.644531 13.5,-7.253906 15.59375,-8.609375 c 2.101562,-1.351563 4.234375,-2.234375 6.390625,-2.640625 2.164063,-0.40625 4.15625,-0.421875 5.96875,-0.04687 1.820313,0.375 3.566406,1.015625 5.234375,1.921875 3.144531,1.699219 5.578125,3.882812 7.296875,6.546875 0.820313,1.273437 1.457031,2.683594 1.90625,4.234375 0.445313,1.5625 0.691406,2.8125 0.734375,3.75 L 43.1875,6.5 c 0.0078,0.664062 0.0039,1.195312 -0.01563,1.59375 -0.105469,1.0625 -0.515625,1.820312 -1.234375,2.28125 -0.710938,0.457031 -1.636719,0.65625 -2.78125,0.59375 C 37.019526,10.851562 35.679683,10.378906 35.14062,9.546875 34.82812,9.054688 34.679683,8.179688 34.70312,6.921875 34.890625,5.191406 34.375,3.382812 33.15625,1.5 32.03125,-0.25 30.3125,-1.578125 28,-2.484375 26.894531,-2.929688 25.628906,-3.070312 24.203125,-2.90625 c -1.429687,0.15625 -2.824219,0.671875 -4.1875,1.546875 -1.355469,0.875 -2.398437,1.925781 -3.125,3.15625 -0.730469,1.226563 -1.136719,2.46875 -1.21875,3.71875 -0.125,2.394531 0.382813,4.484375 1.53125,6.265625 0.539063,0.84375 1.15625,1.5625 1.84375,2.15625 0.695313,0.601562 1.257813,1 1.6875,1.1875 z m 0,0"
               id="path26" />
          </g>
        </g>
      </g>
      <g
         fill="#e7a0cc"
         fill-opacity="1"
         id="g32">
        <g
           transform="translate(316.94271,147.56738)"
           id="g31">
          <g
             id="g30">
            <path
               d="M 37.84375,11.578125 16.046875,31.90625 c -0.867187,0.84375 -1.5625,1.347656 -2.09375,1.515625 -1.09375,0.332031 -2.359375,-0.25 -3.796875,-1.75 -0.855469,-0.875 -1.375,-1.617187 -1.5625,-2.21875 -0.179688,-0.59375 -0.1875,-1.125 -0.03125,-1.59375 0.164062,-0.46875 0.375,-0.835937 0.625,-1.09375 C 9.4375,26.503906 9.820312,26.125 10.34375,25.625 L 14.578125,21.703125 10.640625,8.984375 4.9375,8.140625 C 4.21875,8.023438 3.695312,7.925781 3.375,7.84375 3.050781,7.757812 2.679688,7.566406 2.265625,7.265625 1.859375,6.972656 1.5625,6.523438 1.375,5.921875 1.1875,5.328125 1.195312,4.4375 1.40625,3.25 1.71875,1.195312 2.421875,0.00390625 3.515625,-0.328125 4.046875,-0.492188 4.90625,-0.476562 6.09375,-0.28125 l 29.5,4.46875 c 0.820312,0.113281 1.550781,0.445312 2.1875,1 0.632812,0.5625 1.070312,1.222656 1.3125,1.984375 0.507812,1.65625 0.09375,3.125 -1.25,4.40625 z M 25.671875,11.28125 18.4375,10.203125 l 1.890625,6.09375 z m 0,0"
               id="path29" />
          </g>
        </g>
      </g>
      <g
         fill="#e7a0cc"
         fill-opacity="1"
         id="g35">
        <g
           transform="translate(328.86908,189.94753)"
           id="g34">
          <g
             id="g33">
            <path
               d="M 35.359375,3.53125 35.90625,30.25 c 0.01953,1.019531 -0.08594,1.773438 -0.3125,2.265625 -0.230469,0.488281 -0.605469,0.816406 -1.125,0.984375 -0.511719,0.164062 -1.183594,0.253906 -2.015625,0.265625 -0.835937,0.01953 -1.5,-0.04297 -2,-0.1875 C 29.960938,33.429688 29.613281,33.164062 29.40625,32.78125 29.113281,32.207031 28.957031,31.394531 28.9375,30.34375 L 28.75,21.15625 4.578125,21.640625 C 3.835938,21.648438 3.289062,21.632812 2.9375,21.59375 2.582031,21.550781 2.171875,21.414062 1.703125,21.1875 1.234375,20.957031 0.894531,20.539062 0.6875,19.9375 0.476562,19.332031 0.363281,18.53125 0.34375,17.53125 0.332031,16.539062 0.414062,15.75 0.59375,15.15625 0.769531,14.5625 1.085938,14.132812 1.546875,13.875 c 0.457031,-0.25 0.867187,-0.402344 1.234375,-0.453125 0.375,-0.05469 0.929688,-0.08594 1.671875,-0.09375 l 24.125,-0.484375 -0.1875,-9.21875 c -0.02344,-1.03125 0.08203,-1.792969 0.3125,-2.28125 0.238281,-0.480469 0.609375,-0.808594 1.109375,-0.984375 0.507812,-0.167969 1.179688,-0.2617188 2.015625,-0.28125 0.832031,-0.0234375 1.5,0.046875 2,0.203125 0.507813,0.15625 0.859375,0.421875 1.046875,0.796875 0.300781,0.570313 0.460938,1.390625 0.484375,2.453125 z m 0,0"
               id="path32" />
          </g>
        </g>
      </g>
      <g
         fill="#e7a0cc"
         fill-opacity="1"
         id="g38">
        <g
           transform="translate(327.71016,233.2371)"
           id="g37">
          <g
             id="g36">
            <path
               d="m 30.09375,7.671875 c 0.726562,0.132813 1.269531,0.257813 1.625,0.375 0.351562,0.113281 0.742188,0.34375 1.171875,0.6875 0.757813,0.601563 0.945313,1.914063 0.5625,3.9375 -0.417969,2.195313 -1.25,3.390625 -2.5,3.578125 C 30.398438,16.30078 29.570312,16.21875 28.46875,16 l -26.25,-4.96875 C 1.46875,10.882812 0.921875,10.753906 0.578125,10.640625 0.234375,10.523438 -0.144531,10.300781 -0.5625,9.96875 -1.332031,9.375 -1.523438,8.066406 -1.140625,6.046875 -0.722656,3.835938 0.117188,2.660156 1.390625,2.515625 1.921875,2.421875 2.738281,2.476562 3.84375,2.6875 Z m 0,0"
               id="path35" />
          </g>
        </g>
      </g>
      <g
         fill="#e7a0cc"
         fill-opacity="1"
         id="g41">
        <g
           transform="translate(324.30616,253.61118)"
           id="g40">
          <g
             id="g39">
            <path
               d="M 25.59375,30.921875 C 23.75,35.285156 20.566406,38.40625 16.046875,40.28125 11.523438,42.15625 6.925781,42.097656 2.25,40.109375 -2.425781,38.128906 -5.753906,34.90625 -7.734375,30.4375 -9.710938,25.976562 -9.75,21.507812 -7.84375,17.03125 c 1.898438,-4.480469 5.132812,-7.605469 9.703125,-9.375 4.582031,-1.761719 9.113281,-1.6875 13.59375,0.21875 2.457031,1.039062 4.566406,2.453125 6.328125,4.234375 1.757812,1.789063 3.046875,3.734375 3.859375,5.828125 0.820313,2.09375 1.234375,4.269531 1.234375,6.53125 0.0078,2.269531 -0.417969,4.421875 -1.28125,6.453125 z m -13.25,-15.125 C 9.71875,14.679688 7.226562,14.625 4.875,15.625 2.53125,16.625 0.910156,18.171875 0.015625,20.265625 -0.867188,22.367188 -0.875,24.597656 0,26.953125 c 0.875,2.351563 2.65625,4.097656 5.34375,5.234375 2.6875,1.144531 5.195312,1.210938 7.53125,0.203125 2.34375,-1.011719 3.957031,-2.5625 4.84375,-4.65625 0.894531,-2.09375 0.878906,-4.328125 -0.04687,-6.703125 -0.917969,-2.375 -2.695313,-4.121094 -5.328125,-5.234375 z m 0,0"
               id="path38" />
          </g>
        </g>
      </g>
      <g
         fill="#e7a0cc"
         fill-opacity="1"
         id="g44">
        <g
           transform="translate(305.78338,294.09481)"
           id="g43">
          <g
             id="g42">
            <path
               d="m 10.6875,40.4375 c 0.25,0.59375 0.253906,1.1875 0.01563,1.78125 -0.242187,0.59375 -0.648437,1.242188 -1.21875,1.953125 -0.574219,0.707031 -1.101563,1.226563 -1.578125,1.5625 C 7.425786,46.078125 7.01563,46.28125 6.67188,46.34375 6.32813,46.41406 5.941411,46.35155 5.51563,46.15625 4.992188,46 4.296875,45.566406 3.421875,44.859375 L -17.28125,28.0625 c -0.601562,-0.492188 -1.023438,-0.871094 -1.265625,-1.140625 -0.25,-0.261719 -0.484375,-0.636719 -0.703125,-1.125 -0.382812,-0.898437 0.07031,-2.140625 1.359375,-3.734375 0.792969,-0.96875 1.417969,-1.578125 1.875,-1.828125 0.449219,-0.25 0.933594,-0.375 1.453125,-0.375 12.011719,0.46875 19.878906,0.742187 23.609375,0.828125 L -3.234375,10.734375 C -3.835938,10.242188 -4.257812,9.867188 -4.5,9.609375 -4.75,9.347656 -4.984375,8.96875 -5.203125,8.46875 -5.585938,7.582031 -5.132812,6.34375 -3.84375,4.75 c 1.25,-1.554688 2.351562,-2.230469 3.296875,-2.03125 0.54296875,0.101562 0.976563,0.257812 1.3125,0.46875 C 1.097656,3.394531 1.550781,3.734375 2.125,4.203125 l 20.828125,16.875 c 0.945313,0.769531 1.539063,1.445313 1.78125,2.03125 0.25,0.59375 0.253906,1.179687 0.01563,1.765625 -0.242188,0.59375 -0.664062,1.265625 -1.265625,2.015625 -0.605469,0.75 -1.152344,1.285156 -1.640625,1.609375 -0.492188,0.332031 -0.890625,0.507812 -1.203125,0.53125 -0.15625,0.03906 -0.714844,0.07031 -1.671875,0.09375 C 7.5625,28.570312 0,28.25 -3.71875,28.15625 l 12.625,10.234375 c 0.945312,0.769531 1.539062,1.453125 1.78125,2.046875 z m 0,0"
               id="path41" />
          </g>
        </g>
      </g>
    </g>
  </g>
</svg>
